<svg width="1111" height="340" version="1.1" xmlns="http://www.w3.org/2000/svg" desc="Created with imagetracer.js version 1.2.6" ><path fill="rgb(222,222,222)" stroke="rgb(222,222,222)" stroke-width="1" opacity="0.23921568627450981" d="M 133.5 47 L 173.5 47 L 174.5 48 L 184.5 48 L 187.5 50 L 195.5 50 L 200.5 53 L 204.5 53 L 215.5 58 L 231 69 L 236 75.5 L 236 78 L 239 79.5 L 239 82 Q 242 80.8 241 84.5 L 244 88.5 L 244 92.5 L 247 98.5 L 247 126.5 L 241 143 Q 238 141.8 239 145.5 L 236 147 L 236 150 Q 233.3 148.9 234 151.5 L 231 153 L 227.5 158 Q 224.9 157.3 226 160 L 223 160 L 223 161.5 L 213.5 168 L 203.5 173 L 199.5 173 L 192 177.5 Q 197.3 177.3 199.5 180 L 205.5 180 L 210.5 183 L 215.5 183 Q 217.6 186.9 223 186 Q 221.7 189.3 226.5 188 L 241 197.5 Q 240.3 199.8 242.5 199 L 247 202 L 247 204 Q 249.7 202.9 249 205.5 L 252 210 Q 255 208.8 254 212.5 Q 257.7 213.7 257 218 Q 259.7 216.9 259 219.5 L 262 225.5 L 262 230.5 L 265 234.5 L 265 266.5 L 262 271.5 L 262 276.5 Q 259 277.5 260 282.5 L 257 285.5 L 257 289 Q 254.3 287.9 255 290.5 L 249 300 Q 246.3 298.9 247 301.5 L 244 303 L 242.5 306 L 239.5 308 L 223.5 319 L 220.5 319 L 210.5 324 L 205.5 324 L 200.5 327 Q 190.3 325.8 184.5 329 L 137.5 329 L 136.5 328 L 122.5 328 L 121.5 327 L 78.5 327 L 77.5 326 L 56.5 325 L 55.5 324 L 33.5 324 L 32.5 325 L 20.5 325 L 15 321.5 L 14 318.5 L 22 303.5 L 25 300.5 L 25 297.5 L 30 285.5 L 30 280.5 L 32 276.5 Q 32 267 35 260.5 L 36 220.5 L 37 219.5 L 37 159.5 L 36 158.5 L 35 114.5 Q 32 108 32 98.5 L 25 75.5 L 17 63.5 L 15 56.5 L 17.5 53 L 22.5 51 L 43.5 51 Q 44.7 53.3 49.5 52 L 50.5 51 L 67.5 51 L 68.5 50 L 104.5 50 L 112.5 48 L 132.5 48 L 133.5 47 Z M 142 50 L 141 51 L 121 51 L 120 52 L 98 52 L 97 53 L 84 53 L 83 54 L 61 54 L 59 54 L 58 55 L 22 55 L 20 57 L 30 77 L 35 93 L 39 115 L 40 144 L 41 145 L 41 231 L 40 232 L 39 260 L 32 293 L 26 307 L 19 317 L 19 319 L 22 320 L 63 320 L 64 321 L 103 322 L 104 323 L 158 324 L 161 325 L 176 325 L 177 324 L 187 324 L 195 322 L 201 322 L 223 314 L 237 305 Q 256 290 261 262 L 261 240 L 259 231 Q 255 217 247 209 Q 236 196 220 189 L 198 182 L 176 179 L 174 178 L 201 169 L 221 158 L 237 140 L 242 128 Q 241 123 243 122 L 243 103 L 242 98 Q 238 83 229 74 Q 216 60 196 54 L 180 51 L 172 51 L 171 50 L 142 50 Z " /><path fill="rgb(222,222,222)" stroke="rgb(222,222,222)" stroke-width="1" opacity="0.23921568627450981" d="M 652.5 47 L 686.5 47 L 687.5 48 L 697.5 48 Q 700.4 51.6 708.5 50 L 713.5 53 L 718.5 53 Q 720.7 56.5 726 56 Q 724.7 59.3 729.5 58 L 739 64.5 Q 738.3 66.8 740.5 66 L 744 68 L 749 76 L 752 77.5 L 752 80 Q 755 78.8 754 82.5 L 757 86.5 L 757 89.5 L 760 93.5 L 760 98.5 L 762 100.5 L 762 125.5 Q 759.2 127.2 760 132.5 L 757 136.5 L 757 139.5 L 750.5 149 L 749 149 L 749 152 Q 746.3 150.9 747 153.5 L 744 155 Q 745.1 157.7 742.5 157 L 737.5 162 L 724.5 170 L 707 176 Q 705.6 179.7 711.5 178 L 714.5 180 L 719.5 180 L 725.5 183 L 729.5 183 L 738.5 188 L 741.5 188 L 762 202 L 770 212.5 L 770 215 Q 772.7 213.9 772 216.5 L 775 221.5 L 775 225.5 L 778 228.5 Q 776.2 237.3 780 240.5 L 780 261.5 L 778 264.5 L 778 273.5 L 775 277.5 L 775 281.5 L 764 300 Q 761.3 298.9 762 301.5 L 759 303 L 755.5 308 L 751.5 311 L 749 311 Q 750.1 313.7 747.5 313 L 731.5 322 L 721.5 324 L 716.5 327 Q 706.3 325.8 700.5 329 L 649.5 329 L 648.5 328 L 633.5 328 L 632.5 327 L 592.5 327 L 581.5 325 L 556.5 324 L 555.5 325 L 538.5 325 L 536.5 326 L 529 321.5 L 530 314.5 L 538 302.5 L 541 292.5 L 543 290.5 L 543 285.5 L 545 282.5 L 546 272.5 L 548 267.5 L 548 256.5 L 551 246.5 L 551 128.5 L 548 118.5 L 548 107.5 L 546 103.5 L 545 92.5 L 538 73.5 L 530 61.5 L 530 54.5 L 534.5 52 L 575.5 52 L 586.5 50 L 622.5 50 L 631.5 48 L 651.5 48 L 652.5 47 Z M 659 50 L 658 51 L 639 51 L 638 52 L 615 52 L 614 53 L 602 53 L 601 54 L 537 55 L 534 56 L 534 59 L 547 85 L 552 108 L 554 135 L 555 136 L 555 241 L 554 242 L 553 260 L 552 261 L 550 279 L 545 296 L 533 319 L 536 320 L 575 320 L 576 321 L 593 321 L 594 322 L 639 323 L 640 324 L 670 324 L 671 325 L 690 325 L 691 324 L 702 324 L 710 322 L 716 322 L 728 317 L 731 317 L 743 311 L 754 303 Q 765 293 771 278 L 774 268 L 775 252 L 776 251 L 773 230 L 763 211 Q 752 196 734 189 L 720 184 L 695 179 Q 687 180 688 178 L 690 176 L 701 174 L 722 166 L 742 152 Q 741 149 744 150 L 754 134 L 758 116 L 757 102 L 755 94 Q 751 82 744 75 Q 725 52 685 51 L 683 51 L 682 50 L 661 50 L 659 50 Z " /><path fill="rgb(222,222,222)" stroke="rgb(222,222,222)" stroke-width="1" opacity="0.23921568627450981" d="M 919.5 47 L 949.5 47 L 950.5 48 L 958.5 48 L 962.5 50 L 970.5 50 L 975.5 53 L 981.5 53 Q 982.9 55.6 987.5 55 L 991.5 58 L 994.5 58 L 1010.5 66 Q 1026 76 1038 89.5 L 1041 95 Q 1043.7 93.9 1043 96.5 L 1054 112.5 L 1059 122.5 L 1059 125.5 L 1062 129.5 Q 1061.3 133.8 1064 134.5 L 1064 139.5 L 1067 144.5 L 1067 150.5 L 1069 153.5 L 1070 165.5 L 1072 169.5 L 1072 208.5 L 1070 212.5 L 1070 219.5 L 1067 226.5 L 1067 231.5 L 1064 236.5 L 1064 241.5 L 1059 250.5 L 1056 261 Q 1053 259.8 1054 263.5 L 1039.5 285 Q 1037.3 284.3 1038 286.5 L 1026.5 298 L 1025 298 L 1023.5 301 L 1000.5 316 L 994.5 319 L 990.5 319 L 986.5 322 L 976.5 324 L 971.5 327 L 963.5 327 L 950.5 330 L 916.5 330 L 915.5 329 L 907.5 329 L 902.5 327 L 896.5 327 L 890.5 324 L 886.5 324 Q 883.5 321 877.5 321 L 875.5 319 L 872.5 319 L 865.5 314 L 861 313 Q 862.3 310 858.5 311 L 853 308 Q 854.1 305.3 851.5 306 Q 838.1 297.9 829 285.5 L 814 262.5 L 814 259.5 L 811 256.5 L 811 253.5 L 806 244.5 L 806 240.5 L 803 234.5 Q 803.7 228.8 801 226.5 L 801 217.5 L 798 209.5 L 798 166.5 L 801 159.5 L 801 149.5 Q 804 147.5 803 141.5 L 806 136.5 L 806 132.5 L 816 110.5 L 822 102.5 L 822 100 Q 824.7 101.1 824 98.5 L 830 90 Q 832.7 91.1 832 88.5 L 835 87 L 838.5 82 Q 840.8 82.8 840 80.5 L 843 79 Q 841.9 76.3 844.5 77 L 853 71 Q 851.8 68 855.5 69 L 863.5 63 L 870.5 61 L 873.5 58 L 884.5 55 L 886.5 53 L 892.5 53 L 897.5 50 L 905.5 50 L 909.5 48 L 918.5 48 L 919.5 47 Z M 923 50 L 922 51 L 906 52 L 881 59 Q 860 67 845 81 Q 824 99 813 126 L 807 143 L 802 169 L 802 205 L 808 236 Q 816 263 833 283 Q 847 300 869 311 L 882 317 L 885 317 L 898 322 L 904 322 L 916 325 L 952 325 L 965 322 L 971 322 L 998 312 L 1020 298 Q 1037 284 1048 265 L 1060 238 L 1067 206 L 1067 172 L 1066 171 L 1064 153 L 1060 138 Q 1050 106 1029 86 Q 1010 67 983 57 L 963 52 L 948 51 L 947 50 L 923 50 Z " /><path fill="rgb(222,222,222)" stroke="rgb(222,222,222)" stroke-width="1" opacity="0.23921568627450981" d="M 287.5 51 L 291.5 52 L 323.5 52 L 324.5 53 L 488.5 53 L 489.5 52 L 509.5 52 L 514 54 L 515 56.5 L 515 141.5 L 509.5 145 L 494.5 134 L 484.5 129 Q 477.7 129.7 475.5 126 L 469.5 126 L 467.5 124 L 459.5 124 L 452.5 121 L 331.5 120 L 328 121 L 328 153.5 L 329.5 154 L 330.5 155 L 387.5 155 L 388.5 154 L 410.5 154 Q 414.8 150.3 424.5 152 L 429.5 149 L 436.5 149 L 438.5 147 L 442.5 147 L 448.5 144 L 453 144 Q 451.9 141.3 454.5 142 L 463.5 136 L 470.5 136 L 473 138.5 L 473 235.5 Q 471 239 464.5 238 L 457.5 233 L 445.5 228 L 442.5 228 L 437.5 225 Q 429.8 226.2 426.5 223 L 417.5 223 L 407.5 220 L 387.5 220 L 380.5 218 L 330.5 218 L 328 219 L 328 252.5 L 330.5 255 L 415.5 256 L 416.5 255 L 439.5 255 L 440.5 254 L 460.5 253 Q 463.8 249.8 471.5 251 Q 474.1 247.1 481.5 248 L 489.5 243 L 492.5 243 L 509.5 231 L 515 234.5 L 515 321.5 L 513.5 323 Q 510.6 325.6 504.5 325 L 499.5 324 L 496.5 325 L 495.5 324 L 299.5 324 L 298.5 325 L 284.5 325 L 280 321.5 L 280 315.5 L 288 304.5 L 288 301.5 L 293 293.5 L 293 289.5 L 295 286.5 L 296 277.5 L 298 273.5 L 298 265.5 L 301 257.5 L 301 228.5 L 302 227.5 L 302 207.5 L 303 206.5 L 303 175.5 L 302 174.5 L 301 115.5 L 298 108.5 L 298 100.5 L 296 96.5 L 295 88.5 L 293 85.5 L 293 81.5 L 285 66.5 L 280 60.5 L 280 54.5 L 287.5 51 Z M 287 55 L 285 57 L 285 60 L 289 65 L 297 82 L 302 102 L 304 121 L 305 122 L 306 180 L 307 181 L 306 235 L 305 236 L 305 252 L 304 253 L 302 273 L 296 296 Q 292 308 284 317 L 284 319 L 287 320 L 509 320 L 511 318 L 511 239 L 510 236 Q 498 246 481 252 L 469 255 L 463 255 L 457 257 L 448 257 L 447 258 L 327 258 L 324 257 L 323 255 L 323 218 L 327 214 L 384 214 L 385 215 L 398 215 L 399 216 L 409 216 L 417 218 L 424 218 L 446 223 L 468 234 L 469 231 L 469 145 L 468 140 L 465 140 L 451 148 L 434 153 L 429 153 L 418 156 L 401 157 L 400 158 L 383 158 L 382 159 L 328 159 L 326 158 L 323 155 L 323 120 L 324 117 L 327 116 L 435 116 L 436 117 L 452 117 L 460 119 L 466 119 L 487 125 Q 500 130 510 139 L 511 137 L 511 60 L 510 57 L 509 55 L 287 55 Z " /><path fill="rgb(222,222,222)" stroke="rgb(222,222,222)" stroke-width="1" opacity="0.23921568627450981" d="M 917.5 113 L 951.5 113 L 952.5 114 L 970.5 115 L 990.5 119 L 1018.5 131 L 1037 147.5 Q 1044.7 156.3 1048 169.5 L 1049 181.5 L 1050 182.5 L 1050 193.5 L 1045 213.5 L 1033 232 L 1031 232 Q 1032.1 234.7 1029.5 234 Q 1023.1 241.6 1013.5 246 Q 1000.6 253.1 984.5 257 L 970.5 260 L 954.5 261 L 953.5 262 L 913.5 262 L 912.5 261 L 892.5 259 L 867.5 252 Q 848.8 244.7 836 231.5 Q 825.3 221.2 821 204.5 L 819 195.5 L 819 177.5 Q 823.3 151.3 840.5 138 Q 856.1 125.1 878.5 119 L 897.5 115 L 916.5 114 L 917.5 113 Z M 926 117 L 925 118 L 914 118 L 913 119 L 898 119 L 895 121 L 885 121 L 881 124 L 876 124 Q 875 127 870 126 L 867 129 L 863 129 L 840 144 L 832 156 Q 833 158 830 157 Q 831 162 827 165 L 827 169 L 825 171 L 825 177 L 823 184 L 824 195 L 825 196 L 825 204 L 827 206 L 828 211 Q 827 213 830 212 Q 829 218 833 220 Q 832 223 835 222 L 835 225 L 837 225 L 844 233 L 847 235 L 848 238 Q 853 237 855 241 Q 857 240 856 243 L 860 243 L 867 248 L 871 248 L 874 251 Q 880 250 882 253 L 888 253 L 893 256 Q 902 255 906 258 L 924 258 L 925 259 L 963 258 Q 967 254 977 256 Q 979 252 988 253 L 990 251 Q 997 252 996 249 L 1002 248 L 1012 243 L 1030 230 L 1035 222 L 1038 220 L 1045 201 L 1045 175 L 1040 163 L 1040 159 L 1038 159 L 1038 155 L 1037 155 L 1030 145 L 1016 134 L 1006 129 L 1003 129 L 999 126 Q 994 127 993 124 L 988 124 L 984 121 L 974 121 L 971 119 L 956 119 L 955 118 L 944 118 L 943 117 L 926 117 Z " /><path fill="rgb(222,222,222)" stroke="rgb(222,222,222)" stroke-width="1" opacity="0.23921568627450981" d="M 112.5 114 L 151.5 114 L 152.5 115 L 163.5 115 L 174.5 118 L 183 124.5 L 186 130.5 L 187 137.5 L 185 146.5 L 178.5 156 L 163.5 165 L 139.5 171 L 112.5 172 L 111.5 173 L 61.5 173 L 59 170.5 L 59 117.5 L 60.5 116 L 73.5 116 L 74.5 115 L 111.5 115 L 112.5 114 Z M 72 119 L 64 121 L 64 150 L 63 151 L 64 168 L 70 170 Q 74 171 76 169 L 80 170 L 109 170 L 120 168 L 143 167 Q 146 164 155 165 L 159 162 L 163 162 L 167 160 L 170 157 L 172 157 Q 171 154 174 155 Q 179 151 182 144 Q 184 131 179 126 L 174 123 Q 171 124 172 121 Q 164 123 161 119 L 72 119 Z " /><path fill="rgb(222,222,222)" stroke="rgb(222,222,222)" stroke-width="1" opacity="0.23921568627450981" d="M 635.5 114 L 676.5 115 L 690.5 119 L 696 123.5 Q 700.6 128.9 701 138.5 Q 699 151.5 690.5 158 L 675.5 166 L 652.5 171 L 626.5 172 L 625.5 173 L 576.5 173 L 574 172 L 573 169.5 L 573 119.5 L 574 117 L 576.5 116 L 634.5 115 L 635.5 114 Z M 601 119 L 600 120 L 584 120 L 578 121 L 578 168 Q 581 167 580 170 L 624 170 L 633 168 L 658 167 Q 661 163 670 165 L 673 162 L 678 162 L 686 157 L 694 149 Q 693 144 696 144 L 696 133 L 692 126 Q 689 127 690 124 Q 686 125 685 121 Q 677 122 674 119 L 601 119 Z " /><path fill="rgb(222,222,222)" stroke="rgb(222,222,222)" stroke-width="1" opacity="0.23921568627450981" d="M 67.5 187 L 71.5 188 L 73.5 188 L 82.5 188 L 83.5 187 L 87.5 188 L 88.5 187 L 136.5 187 L 137.5 188 L 149.5 188 L 168.5 192 L 180.5 197 L 193 207.5 L 196 212.5 L 199 225.5 L 198 226.5 L 197 237.5 Q 193.8 246.3 186.5 251 Q 177.4 257.4 164.5 260 L 137.5 262 L 136.5 261 L 99.5 260 L 98.5 259 L 67.5 255 L 60 253 L 59 250.5 L 59 190.5 L 61.5 188 Q 66.3 189.3 67.5 187 Z M 66 192 L 64 194 L 64 249 L 67 251 Q 73 250 76 253 Q 86 252 92 256 L 109 256 L 114 258 L 157 258 Q 160 255 169 256 L 173 253 Q 178 255 177 251 Q 182 252 185 248 Q 191 243 194 235 L 194 219 L 189 210 L 186 207 L 184 204 L 182 204 L 176 199 L 166 197 L 161 194 Q 152 195 148 192 L 66 192 Z " /><path fill="rgb(222,222,222)" stroke="rgb(222,222,222)" stroke-width="1" opacity="0.23921568627450981" d="M 578.5 187 L 592.5 188 L 593.5 187 L 649.5 187 L 650.5 188 L 669.5 189 L 682.5 192 L 697.5 199 L 706 206.5 Q 714.2 214.8 712 233.5 Q 709.1 245.1 700.5 251 L 682.5 259 L 671.5 261 L 659.5 261 L 658.5 262 L 656.5 261 L 655.5 262 L 646.5 262 L 643.5 261 L 612.5 260 L 611.5 259 L 592.5 257 L 586.5 255 L 580.5 255 L 574 251.5 L 573 249.5 L 573 191.5 L 574 189 L 578.5 187 Z M 580 192 L 577 196 L 577 207 L 578 208 L 578 248 L 580 251 Q 586 250 589 253 L 598 253 L 605 256 Q 618 254 626 258 L 671 258 Q 674 255 683 256 L 687 253 L 691 253 L 695 251 L 702 245 Q 701 242 704 243 L 707 238 Q 705 231 708 230 L 707 217 L 704 212 L 690 199 L 680 197 L 675 194 Q 666 195 662 192 L 580 192 Z " /><path fill="rgb(252,252,252)" stroke="rgb(252,252,252)" stroke-width="1" opacity="0.8705882352941177" d="M 141.5 50 L 170.5 50 L 171.5 51 L 179.5 51 L 195.5 54 Q 216.4 59.6 229 73.5 Q 238.2 82.8 242 97.5 L 243 102.5 L 243 121.5 Q 240.8 122.8 242 127.5 L 237 139.5 L 220.5 158 L 200.5 169 L 174 177.5 L 175.5 179 L 197.5 182 L 219.5 189 Q 236 196 247 208.5 Q 255.2 217.3 259 230.5 L 261 239.5 L 261 261.5 Q 255.8 290.3 236.5 305 L 222.5 314 L 200.5 322 L 194.5 322 L 186.5 324 L 176.5 324 L 175.5 325 L 160.5 325 L 157.5 324 L 103.5 323 L 102.5 322 L 63.5 321 L 62.5 320 L 21.5 320 L 19 319 L 19 316.5 L 26 306.5 L 32 292.5 L 39 259.5 L 40 231.5 L 41 230.5 L 41 144.5 L 40 143.5 L 39 114.5 L 35 92.5 L 30 76.5 L 20 56.5 L 21.5 55 L 57.5 55 L 58.5 54 L 60.5 54 L 82.5 54 L 83.5 53 L 96.5 53 L 97.5 52 L 119.5 52 L 120.5 51 L 140.5 51 L 141.5 50 Z M 124 53 L 116 55 L 74 56 L 73 57 L 62 57 L 61 58 L 25 58 L 23 60 L 35 84 L 36 92 L 38 96 L 38 103 L 40 106 Q 39 110 41 112 L 41 126 L 43 137 L 43 240 L 41 251 L 41 263 L 38 273 L 38 280 L 35 288 L 35 292 L 33 294 L 32 300 L 27 309 Q 28 311 25 310 L 22 318 L 42 318 L 43 319 L 76 319 L 77 320 L 89 320 L 90 321 L 144 322 L 145 323 L 181 323 L 182 322 L 198 321 L 215 316 L 237 303 L 250 288 L 257 272 L 260 257 L 260 246 L 257 231 L 249 216 Q 250 213 247 214 L 242 206 L 229 196 L 211 188 L 171 180 L 169 178 L 176 174 L 185 173 L 204 166 L 222 155 L 233 143 L 239 132 Q 238 126 241 125 L 241 102 L 238 92 L 231 80 L 214 64 L 194 56 L 183 55 L 178 53 L 124 53 Z " /><path fill="rgb(252,252,252)" stroke="rgb(252,252,252)" stroke-width="1" opacity="0.8705882352941177" d="M 658.5 50 L 660.5 50 L 681.5 50 L 682.5 51 L 684.5 51 Q 724.9 52.1 744 74.5 Q 751.2 82.3 755 93.5 L 757 101.5 L 758 115.5 L 754 133.5 L 744 150 Q 741.3 148.9 742 151.5 L 721.5 166 L 700.5 174 L 689.5 176 L 688 177.5 Q 687.5 180.5 694.5 179 L 719.5 184 L 733.5 189 Q 751.7 196.3 763 210.5 L 773 229.5 L 776 250.5 L 775 251.5 L 774 267.5 L 771 277.5 Q 765 293 753.5 303 L 742.5 311 L 730.5 317 L 727.5 317 L 715.5 322 L 709.5 322 L 701.5 324 L 690.5 324 L 689.5 325 L 670.5 325 L 669.5 324 L 639.5 324 L 638.5 323 L 593.5 322 L 592.5 321 L 575.5 321 L 574.5 320 L 535.5 320 L 533 319 L 545 295.5 L 550 278.5 L 552 260.5 L 553 259.5 L 554 241.5 L 555 240.5 L 555 135.5 L 554 134.5 L 552 107.5 L 547 84.5 L 534 58.5 L 534 56 L 536.5 55 L 600.5 54 L 601.5 53 L 613.5 53 L 614.5 52 L 637.5 52 L 638.5 51 L 657.5 51 L 658.5 50 Z M 642 53 L 635 55 L 591 56 L 580 58 L 538 58 L 538 63 L 545 74 L 551 91 L 551 97 L 553 100 L 554 114 L 556 120 L 556 136 L 557 137 L 557 148 L 558 149 L 558 232 L 557 233 L 557 243 L 556 244 L 556 256 L 550 289 L 543 307 L 538 314 L 537 318 L 541 319 L 589 319 L 590 320 L 602 320 L 603 321 L 656 322 L 657 323 L 696 323 L 697 322 L 713 321 L 726 316 L 729 316 L 749 305 Q 768 291 773 263 L 773 240 Q 771 238 772 234 L 770 227 L 762 213 L 748 199 L 733 191 L 705 183 L 689 182 L 684 180 L 682 177 L 689 174 L 699 173 L 721 165 L 735 156 L 748 142 L 754 130 L 755 119 L 756 118 L 756 109 L 755 108 L 754 97 L 746 81 L 741 76 Q 742 73 739 74 L 739 72 L 722 61 L 715 58 L 710 58 L 707 56 L 696 55 L 691 53 L 642 53 Z " /><path fill="rgb(252,252,252)" stroke="rgb(252,252,252)" stroke-width="1" opacity="0.8705882352941177" d="M 922.5 50 L 946.5 50 L 947.5 51 L 962.5 52 L 982.5 57 Q 1010.2 66.8 1029 85.5 Q 1049.9 106.1 1060 137.5 L 1064 152.5 L 1066 170.5 L 1067 171.5 L 1067 205.5 L 1060 237.5 L 1048 264.5 Q 1036.6 284.1 1019.5 298 L 997.5 312 L 970.5 322 L 964.5 322 L 951.5 325 L 915.5 325 L 903.5 322 L 897.5 322 L 884.5 317 L 881.5 317 L 868.5 311 Q 847.5 300 833 282.5 Q 816.5 263 808 235.5 L 802 204.5 L 802 168.5 L 807 142.5 L 813 125.5 Q 824.4 98.9 844.5 81 Q 859.8 67.3 880.5 59 L 905.5 52 L 921.5 51 L 922.5 50 Z M 915 53 L 911 55 L 899 56 L 896 58 L 892 58 L 878 63 Q 863 69 852 79 L 849 81 L 827 105 L 814 129 L 811 141 L 809 144 L 809 149 L 806 158 L 806 166 L 804 173 L 804 202 L 806 211 L 806 219 L 808 223 L 809 232 Q 817 261 835 282 Q 834 284 837 283 L 844 291 Q 846 290 845 293 L 862 305 L 884 316 L 888 316 L 901 321 L 914 322 L 919 324 L 950 324 L 954 322 L 968 321 Q 969 318 975 319 L 985 316 L 987 314 L 1002 308 L 1022 294 Q 1041 277 1053 252 L 1059 236 L 1062 221 L 1064 217 L 1065 197 L 1066 196 L 1065 170 L 1061 147 L 1054 127 L 1046 113 Q 1047 109 1044 110 Q 1039 98 1030 91 Q 1031 88 1028 89 L 1028 87 L 1004 69 L 978 58 L 958 55 L 954 53 L 915 53 Z " /><path fill="rgb(252,252,252)" stroke="rgb(252,252,252)" stroke-width="1" opacity="0.8705882352941177" d="M 286.5 55 L 508.5 55 L 510 56.5 L 511 59.5 L 511 136.5 L 509.5 139 Q 499.6 130.4 486.5 125 L 465.5 119 L 459.5 119 L 451.5 117 L 435.5 117 L 434.5 116 L 326.5 116 L 324 117 L 323 119.5 L 323 154.5 L 325.5 158 L 327.5 159 L 381.5 159 L 382.5 158 L 399.5 158 L 400.5 157 L 417.5 156 L 428.5 153 L 433.5 153 L 450.5 148 L 464.5 140 L 468 140 L 469 144.5 L 469 230.5 L 467.5 234 L 445.5 223 L 423.5 218 L 416.5 218 L 408.5 216 L 398.5 216 L 397.5 215 L 384.5 215 L 383.5 214 L 326.5 214 L 323 217.5 L 323 254.5 L 324 257 L 326.5 258 L 446.5 258 L 447.5 257 L 456.5 257 L 462.5 255 L 468.5 255 L 480.5 252 Q 497.6 246 510 236 L 511 238.5 L 511 317.5 L 508.5 320 L 286.5 320 L 284 319 L 284 316.5 Q 291.9 307.9 296 295.5 L 302 272.5 L 304 252.5 L 305 251.5 L 305 235.5 L 306 234.5 L 307 180.5 L 306 179.5 L 305 121.5 L 304 120.5 L 302 101.5 L 297 81.5 L 289 64.5 L 285 59.5 L 285 56.5 L 286.5 55 Z M 288 58 L 288 61 L 298 78 L 301 87 L 301 91 L 303 94 L 304 106 L 306 110 L 306 120 L 308 130 L 308 152 L 309 153 L 309 224 L 308 225 L 308 246 L 306 256 L 306 265 L 304 270 L 303 281 L 301 284 L 301 289 L 298 298 L 296 300 L 293 309 L 288 316 L 288 318 L 294 319 L 296 318 L 477 318 L 478 319 L 498 319 L 499 318 L 509 318 L 509 318 L 509 241 L 507 241 L 502 245 L 486 253 L 476 256 L 471 256 L 467 258 L 453 259 L 446 261 L 327 261 L 324 259 L 322 258 L 322 216 L 328 212 L 382 212 L 392 214 L 415 215 L 421 217 L 428 217 L 442 220 L 453 225 L 456 225 L 464 230 L 467 230 L 467 146 L 466 144 L 451 151 L 428 157 L 422 157 L 409 160 L 394 160 L 385 162 L 328 162 L 322 158 L 322 118 L 323 115 L 327 114 L 422 114 L 423 115 L 459 116 L 484 122 Q 497 127 507 135 L 509 135 L 509 59 L 507 58 L 288 58 Z " /><path fill="rgb(252,252,252)" stroke="rgb(252,252,252)" stroke-width="1" opacity="0.8705882352941177" d="M 917.5 111 L 951.5 111 L 958.5 113 L 970.5 113 L 981.5 116 L 987.5 116 L 1015.5 127 L 1026.5 134 L 1038 145.5 L 1045 155.5 L 1050 167.5 L 1051 179.5 L 1052 180.5 L 1052 195.5 L 1048 213.5 L 1040 228 Q 1037.3 226.9 1038 229.5 L 1020.5 245 L 1005.5 253 L 991.5 258 L 961.5 264 L 924.5 265 L 923.5 264 L 905.5 264 Q 904.2 261.7 899.5 263 L 871.5 256 L 848.5 245 L 835 233.5 L 833 230.5 L 825 220.5 L 819 204.5 Q 820 198.5 817 196.5 L 817 176.5 Q 820 172.5 820 165.5 L 825 154.5 Q 831.1 143.5 840.5 136 L 861.5 123 L 881.5 116 L 886.5 116 L 897.5 113 L 910.5 113 L 917.5 111 Z M 918 113 L 917 114 L 898 115 L 879 119 Q 856 125 841 138 Q 823 151 819 178 L 819 196 L 821 205 Q 825 221 836 232 Q 849 245 868 252 L 893 259 L 913 261 L 914 262 L 954 262 L 955 261 L 971 260 L 985 257 Q 1001 253 1014 246 Q 1023 242 1030 234 Q 1032 235 1031 232 L 1033 232 L 1045 214 L 1050 194 L 1050 183 L 1049 182 L 1048 170 Q 1045 156 1037 148 L 1019 131 L 991 119 L 971 115 L 953 114 L 952 113 L 918 113 Z " /><path fill="rgb(252,252,252)" stroke="rgb(252,252,252)" stroke-width="1" opacity="0.8705882352941177" d="M 65.5 113 L 162.5 113 L 174.5 116 L 186 125.5 Q 190.7 131.3 189 143.5 Q 185.6 154.1 177.5 160 L 158.5 170 L 143.5 173 L 134.5 173 L 127.5 175 L 70.5 175 Q 69.3 177.2 64.5 176 L 60.5 175 L 57 171.5 L 57 116.5 L 58.5 115 L 65.5 113 Z M 113 114 L 112 115 L 75 115 L 74 116 L 61 116 L 59 118 L 59 171 L 62 173 L 112 173 L 113 172 L 140 171 L 164 165 L 179 156 L 185 147 L 187 138 L 186 131 L 183 125 L 175 118 L 164 115 L 153 115 L 152 114 L 113 114 Z " /><path fill="rgb(252,252,252)" stroke="rgb(252,252,252)" stroke-width="1" opacity="0.8705882352941177" d="M 597.5 113 L 674.5 113 L 688.5 116 L 699 124.5 L 702 130.5 L 702 145.5 Q 697.8 155.8 689.5 162 L 672.5 170 L 657.5 173 L 647.5 173 L 640.5 175 L 582.5 175 L 578.5 176 L 572 172.5 L 572 117.5 L 574.5 115 L 576.5 114 L 596.5 114 L 597.5 113 Z M 636 114 L 635 115 L 577 116 L 574 117 L 573 120 L 573 170 L 574 172 L 577 173 L 626 173 L 627 172 L 653 171 L 676 166 L 691 158 Q 699 151 701 139 Q 701 129 696 124 L 691 119 L 677 115 L 636 114 Z " /><path fill="rgb(252,252,252)" stroke="rgb(252,252,252)" stroke-width="1" opacity="0.8705882352941177" d="M 60.5 186 L 150.5 186 L 173.5 192 L 191 202 L 192.5 205 Q 194.8 204.3 194 206.5 L 199 213.5 L 201 228.5 L 199 239.5 L 194 248 Q 191.3 246.9 192 249.5 L 189 251 Q 190.1 253.7 187.5 253 L 171.5 261 L 157.5 264 L 115.5 264 L 114.5 263 L 103.5 263 L 95.5 261 L 86.5 261 L 75.5 258 L 68.5 258 L 61.5 256 L 57 251.5 L 57 189.5 L 58 187 L 60.5 186 Z M 68 187 Q 66 189 62 188 L 59 191 L 59 251 L 60 253 L 68 255 L 99 259 L 100 260 L 137 261 L 138 262 L 165 260 Q 177 257 187 251 Q 194 246 197 238 L 198 227 L 199 226 L 196 213 L 193 208 L 181 197 L 169 192 L 150 188 L 138 188 L 137 187 L 89 187 L 88 188 L 84 187 L 83 188 L 74 188 L 72 188 L 68 187 Z " /><path fill="rgb(252,252,252)" stroke="rgb(252,252,252)" stroke-width="1" opacity="0.8705882352941177" d="M 575.5 186 L 663.5 186 L 678.5 189 L 692.5 194 Q 702.5 199 709 207.5 Q 715.4 215.6 715 230.5 L 712 241.5 L 704.5 251 L 693.5 258 L 677.5 263 Q 672 261.5 670.5 264 L 625.5 264 L 624.5 263 L 615.5 263 L 608.5 261 L 599.5 261 L 594.5 259 L 582.5 258 L 575.5 256 L 572 252.5 L 572 189.5 L 573 187 L 575.5 186 Z M 579 187 L 574 189 L 573 192 L 573 250 L 574 252 L 581 255 L 587 255 L 593 257 L 612 259 L 613 260 L 644 261 L 647 262 L 656 262 L 657 261 L 659 262 L 660 261 L 672 261 L 683 259 L 701 251 Q 709 245 712 234 Q 714 215 706 207 L 698 199 L 683 192 L 670 189 L 651 188 L 650 187 L 594 187 L 593 188 L 579 187 Z " /><path fill="rgb(255,255,255)" stroke="rgb(255,255,255)" stroke-width="1" opacity="0.9921568627450981" d="M 123.5 53 L 177.5 53 L 182.5 55 L 193.5 56 L 213.5 64 L 231 79.5 L 238 91.5 L 241 101.5 L 241 124.5 Q 238.2 126.2 239 131.5 L 233 142.5 L 221.5 155 L 203.5 166 L 184.5 173 L 175.5 174 L 169 177.5 L 170.5 180 L 210.5 188 L 228.5 196 L 242 206 L 247 214 Q 249.7 212.9 249 215.5 L 257 230.5 L 260 245.5 L 260 256.5 L 257 271.5 L 250 287.5 L 236.5 303 L 214.5 316 L 197.5 321 L 181.5 322 L 180.5 323 L 144.5 323 L 143.5 322 L 89.5 321 L 88.5 320 L 76.5 320 L 75.5 319 L 42.5 319 L 41.5 318 L 22 318 L 25 310 Q 27.7 311.1 27 308.5 L 32 299.5 L 33 293.5 L 35 291.5 L 35 287.5 L 38 279.5 L 38 272.5 L 41 262.5 L 41 250.5 L 43 239.5 L 43 136.5 L 41 125.5 L 41 111.5 Q 38.8 110.3 40 105.5 L 38 102.5 L 38 95.5 L 36 91.5 L 35 83.5 L 23 59.5 L 24.5 58 L 60.5 58 L 61.5 57 L 72.5 57 L 73.5 56 L 115.5 55 L 123.5 53 Z M 101 56 L 101 59 L 39 59 L 38 61 L 28 61 Q 27 64 31 63 L 31 68 Q 35 67 33 73 L 36 73 L 36 81 L 38 82 L 38 92 L 41 93 L 41 105 L 44 106 L 44 144 L 46 144 L 46 231 L 44 232 L 44 270 L 41 271 L 41 283 L 38 284 L 38 293 L 36 294 L 36 301 L 33 301 Q 35 307 31 307 L 31 311 L 28 311 L 29 316 L 72 316 L 73 318 L 124 318 L 124 321 L 186 321 L 187 318 L 202 318 L 203 316 L 209 316 L 209 313 L 215 313 L 215 310 L 222 310 Q 221 307 225 308 L 225 305 L 230 305 L 230 303 L 233 303 Q 232 299 235 300 L 235 297 Q 239 298 238 295 L 241 295 L 241 292 Q 244 293 243 290 L 246 290 L 246 284 L 248 284 L 248 279 L 251 279 L 251 274 L 254 274 L 254 265 L 256 264 L 256 240 L 254 239 L 254 231 L 251 231 L 251 223 L 248 223 Q 249 219 246 220 L 246 215 L 243 215 L 243 212 Q 240 213 241 210 L 238 210 L 238 207 L 235 207 Q 236 204 233 205 L 233 202 L 228 202 L 228 199 Q 224 200 225 197 L 220 197 L 220 194 L 213 194 Q 213 191 207 192 L 207 189 L 195 189 L 194 186 L 174 186 L 173 184 L 164 184 L 164 185 L 169 185 L 169 188 L 174 188 L 174 191 L 182 191 Q 181 194 184 193 L 184 196 L 190 196 Q 189 199 192 198 L 192 201 L 195 201 L 195 204 Q 198 203 197 206 L 200 206 L 200 211 L 203 211 L 203 241 L 200 241 L 200 246 L 197 246 Q 198 250 195 249 L 195 252 L 192 252 Q 193 255 190 254 L 190 257 Q 186 256 187 259 L 182 259 L 182 262 L 174 262 L 174 265 L 162 265 L 161 267 L 111 267 L 110 265 L 88 265 L 87 262 L 70 262 L 69 259 L 59 259 Q 59 256 56 257 L 56 254 L 53 254 L 53 186 L 56 185 L 56 183 L 160 183 L 160 183 L 160 175 L 165 175 L 165 172 L 173 172 L 174 170 L 189 170 L 189 167 Q 195 169 195 165 L 202 165 L 202 162 L 207 162 L 207 159 L 212 159 Q 211 156 215 157 L 215 154 L 220 154 Q 219 151 222 152 L 222 149 L 225 149 L 225 144 L 228 144 L 228 141 Q 231 142 230 139 L 233 139 L 233 133 L 235 133 L 235 126 L 238 126 L 238 101 L 235 100 L 235 94 L 233 93 L 233 87 L 230 87 L 230 82 Q 227 83 228 80 L 225 80 Q 227 76 222 77 L 222 74 Q 219 75 220 72 L 217 72 L 217 69 Q 211 71 212 67 L 207 67 L 207 64 L 202 64 L 202 61 L 195 61 L 194 59 L 184 59 L 183 56 L 101 56 Z M 61 186 L 58 187 L 57 190 L 57 252 L 62 256 L 69 258 L 76 258 L 87 261 L 96 261 L 104 263 L 115 263 L 116 264 L 158 264 L 172 261 L 188 253 Q 190 254 189 251 L 192 250 Q 191 247 194 248 L 199 240 L 201 229 L 199 214 L 194 207 Q 195 204 193 205 L 191 202 L 174 192 L 151 186 L 61 186 Z " /><path fill="rgb(255,255,255)" stroke="rgb(255,255,255)" stroke-width="1" opacity="0.9921568627450981" d="M 641.5 53 L 690.5 53 L 695.5 55 L 706.5 56 L 709.5 58 L 714.5 58 L 721.5 61 L 739 72 L 739 74 Q 741.7 72.9 741 75.5 L 746 80.5 L 754 96.5 L 755 107.5 L 756 108.5 L 756 117.5 L 755 118.5 L 754 129.5 L 748 141.5 L 734.5 156 L 720.5 165 L 698.5 173 L 688.5 174 L 682 177 L 683.5 180 L 688.5 182 L 704.5 183 L 732.5 191 L 747.5 199 L 762 212.5 L 770 226.5 L 772 233.5 Q 770.7 238.3 773 239.5 L 773 262.5 Q 767.9 290.9 748.5 305 L 728.5 316 L 725.5 316 L 712.5 321 L 696.5 322 L 695.5 323 L 656.5 323 L 655.5 322 L 602.5 321 L 601.5 320 L 589.5 320 L 588.5 319 L 540.5 319 L 537 318 L 538 313.5 L 543 306.5 L 550 288.5 L 556 255.5 L 556 243.5 L 557 242.5 L 557 232.5 L 558 231.5 L 558 148.5 L 557 147.5 L 557 136.5 L 556 135.5 L 556 119.5 L 554 113.5 L 553 99.5 L 551 96.5 L 551 90.5 L 545 73.5 L 538 62.5 L 538 58 L 579.5 58 L 590.5 56 L 634.5 55 L 641.5 53 Z M 622 56 L 622 59 L 560 59 L 559 61 L 544 61 Q 543 67 546 67 L 546 71 L 549 72 L 549 79 L 552 79 L 552 86 L 554 87 L 554 99 L 557 100 L 557 118 L 559 118 L 559 259 L 557 260 L 557 278 L 554 279 L 554 288 L 552 289 L 552 298 L 549 298 L 549 304 L 546 304 L 546 309 L 544 309 L 544 316 L 545 316 L 585 316 L 586 318 L 635 318 L 635 321 L 702 321 L 703 318 L 715 318 L 716 316 L 725 316 L 725 313 L 730 313 L 730 310 Q 736 312 736 308 L 741 308 L 741 305 Q 744 306 743 303 L 748 303 Q 747 299 751 300 L 751 297 L 754 297 Q 753 294 756 295 L 756 292 L 759 292 Q 758 286 761 287 L 761 282 L 764 282 L 764 277 L 767 277 L 767 271 L 769 271 L 769 234 L 767 233 L 767 225 L 764 225 L 764 220 L 761 220 Q 762 217 759 218 L 759 212 L 756 212 Q 757 209 754 210 L 754 207 Q 750 208 751 205 L 746 205 Q 748 201 743 202 L 743 199 Q 737 201 738 197 L 733 197 L 733 194 Q 727 195 728 192 L 720 192 L 720 189 L 710 189 L 709 186 L 682 186 L 682 188 L 690 188 L 690 191 Q 696 190 696 193 L 700 193 L 700 196 Q 704 195 703 198 L 708 198 L 708 204 Q 711 203 710 206 L 713 206 L 713 209 L 716 209 L 716 217 L 718 217 L 718 236 L 716 236 L 716 244 L 713 244 L 713 249 L 710 249 L 710 252 Q 707 251 708 254 L 705 254 L 705 257 Q 699 255 700 259 L 695 259 L 695 262 L 688 262 L 687 265 L 678 265 L 677 267 L 622 267 L 621 265 L 598 265 L 597 262 L 583 262 L 582 259 L 572 259 Q 572 256 569 257 L 569 186 Q 572 186 571 183 L 673 183 L 673 183 L 673 175 L 678 175 L 678 172 L 686 172 L 687 170 L 702 170 L 702 167 L 709 167 L 709 165 L 715 165 L 715 162 L 720 162 L 720 159 Q 726 161 726 157 L 730 157 L 730 154 L 733 154 Q 732 151 735 152 Q 734 148 738 149 L 738 146 L 741 146 Q 740 143 743 144 L 743 141 L 746 141 Q 745 135 748 136 L 748 131 L 751 131 L 751 120 L 754 120 L 754 109 L 751 108 L 751 96 L 748 95 Q 750 89 746 90 L 746 85 L 743 85 L 743 82 Q 740 83 741 80 L 738 80 L 738 74 L 733 74 Q 734 71 730 72 L 730 69 Q 727 70 728 67 L 722 67 L 722 64 L 717 64 L 717 61 L 710 61 L 709 59 L 697 59 L 696 56 L 622 56 Z M 576 186 L 573 187 L 572 190 L 572 253 L 576 256 L 583 258 L 595 259 L 600 261 L 609 261 L 616 263 L 625 263 L 626 264 L 671 264 Q 672 262 678 263 L 694 258 L 705 251 L 712 242 L 715 231 Q 715 216 709 208 Q 702 199 693 194 L 679 189 L 664 186 L 576 186 Z " /><path fill="rgb(255,255,255)" stroke="rgb(255,255,255)" stroke-width="1" opacity="0.9921568627450981" d="M 914.5 53 L 953.5 53 L 957.5 55 L 977.5 58 L 1003.5 69 L 1028 87 L 1028 89 Q 1030.7 87.9 1030 90.5 Q 1039.4 98.4 1044 110 Q 1047 108.8 1046 112.5 L 1054 126.5 L 1061 146.5 L 1065 169.5 L 1066 195.5 L 1065 196.5 L 1064 216.5 L 1062 220.5 L 1059 235.5 L 1053 251.5 Q 1041.4 276.9 1021.5 294 L 1001.5 308 L 986.5 314 L 984.5 316 L 974.5 319 Q 969.2 318.2 967.5 321 L 953.5 322 L 949.5 324 L 918.5 324 L 913.5 322 L 900.5 321 L 887.5 316 L 883.5 316 L 861.5 305 L 845 293 Q 846.1 290.3 843.5 291 L 837 283 Q 834.3 284.1 835 281.5 Q 817 261.5 809 231.5 L 808 222.5 L 806 218.5 L 806 210.5 L 804 201.5 L 804 172.5 L 806 165.5 L 806 157.5 L 809 148.5 L 809 143.5 L 811 140.5 L 814 128.5 L 827 104.5 L 848.5 81 L 851.5 79 Q 862.8 69.3 877.5 63 L 891.5 58 L 895.5 58 L 898.5 56 L 910.5 55 L 914.5 53 Z M 929 54 L 929 56 L 909 56 L 908 59 L 896 59 L 895 61 L 887 61 L 887 64 L 882 64 L 882 67 L 875 67 Q 875 71 869 69 L 869 72 Q 866 71 867 74 L 861 74 Q 862 78 859 77 L 859 80 L 855 80 Q 855 83 851 82 L 851 85 L 848 85 Q 849 88 846 87 L 846 90 L 843 90 L 843 93 Q 840 92 841 95 L 838 95 L 838 98 L 835 98 Q 836 101 833 100 L 833 106 L 830 106 Q 831 109 828 108 L 828 114 Q 824 113 825 116 L 822 116 L 822 124 L 820 124 L 820 129 L 817 129 L 817 134 L 815 134 L 815 142 L 812 143 L 812 153 L 809 154 L 809 168 L 807 168 L 807 206 L 809 207 L 809 222 L 812 222 L 812 232 L 815 233 Q 814 241 817 241 L 817 248 L 820 248 Q 819 254 822 254 L 822 258 L 825 258 L 825 264 L 828 264 Q 827 267 830 266 L 830 271 L 833 271 Q 832 275 835 274 L 835 279 Q 840 278 838 282 L 841 282 Q 840 285 843 284 L 843 287 L 846 287 L 846 290 Q 849 289 848 292 L 851 292 L 851 295 L 856 295 Q 855 298 859 297 Q 858 301 861 300 L 861 303 L 867 303 Q 866 307 872 305 L 872 308 Q 878 307 878 310 L 882 310 L 882 313 L 890 313 L 890 316 L 898 316 L 899 318 L 908 318 L 908 321 L 959 321 L 960 318 L 970 318 L 971 316 L 980 316 L 980 313 L 985 313 L 985 310 L 993 310 L 993 308 L 998 308 L 998 305 Q 1002 306 1001 303 L 1006 303 L 1006 300 L 1011 300 L 1011 297 Q 1015 298 1014 295 L 1017 295 L 1017 292 Q 1020 293 1019 290 L 1022 290 Q 1021 286 1024 287 L 1024 284 Q 1028 285 1027 282 L 1030 282 L 1030 279 Q 1033 280 1032 277 L 1035 277 Q 1034 273 1037 274 L 1037 269 Q 1042 271 1040 266 L 1043 266 Q 1042 260 1045 261 L 1045 256 L 1048 256 L 1048 251 L 1051 251 L 1051 245 L 1053 245 L 1053 238 L 1056 238 Q 1055 229 1058 230 L 1058 220 L 1061 219 L 1061 205 L 1064 204 L 1064 174 L 1061 173 L 1061 156 L 1058 155 L 1058 146 Q 1055 146 1056 138 L 1053 137 Q 1055 131 1051 132 L 1051 124 L 1048 124 L 1048 119 L 1045 119 Q 1046 115 1043 116 L 1043 111 L 1040 111 L 1040 106 L 1037 106 Q 1038 102 1035 103 L 1035 100 L 1032 100 L 1032 95 Q 1029 96 1030 93 L 1027 93 L 1027 90 L 1024 90 L 1024 87 Q 1021 88 1022 85 L 1017 85 L 1017 82 Q 1013 83 1014 80 L 1011 80 L 1011 77 L 1006 77 L 1006 74 Q 1003 75 1004 72 L 998 72 L 998 69 Q 992 71 993 67 L 988 67 L 988 64 L 981 64 L 980 61 L 973 61 L 972 59 L 960 59 L 959 56 L 940 56 L 939 54 L 929 54 Z " /><path fill="rgb(255,255,255)" stroke="rgb(255,255,255)" stroke-width="1" opacity="0.9921568627450981" d="M 288 58 L 506.5 58 L 509 59 L 509 134.5 L 506.5 135 Q 497 126.5 483.5 122 L 458.5 116 L 422.5 115 L 421.5 114 L 326.5 114 L 323 115 L 322 117.5 L 322 157.5 L 327.5 162 L 384.5 162 L 393.5 160 L 408.5 160 L 421.5 157 L 427.5 157 L 450.5 151 L 465.5 144 L 467 145.5 L 467 230 L 463.5 230 L 455.5 225 L 452.5 225 L 441.5 220 L 427.5 217 L 420.5 217 L 414.5 215 L 391.5 214 L 381.5 212 L 327.5 212 L 322 215.5 L 322 257.5 L 323.5 259 L 326.5 261 L 445.5 261 L 452.5 259 L 466.5 258 L 470.5 256 L 475.5 256 L 485.5 253 L 501.5 245 L 506.5 241 L 509 241 L 509 317.5 L 508.5 318 L 498.5 318 L 497.5 319 L 477.5 319 L 476.5 318 L 295.5 318 L 293.5 319 L 288 318 L 288 315.5 L 293 308.5 L 296 299.5 L 298 297.5 L 301 288.5 L 301 283.5 L 303 280.5 L 304 269.5 L 306 264.5 L 306 255.5 L 308 245.5 L 308 224.5 L 309 223.5 L 309 152.5 L 308 151.5 L 308 129.5 L 306 119.5 L 306 109.5 L 304 105.5 L 303 93.5 L 301 90.5 L 301 86.5 L 298 77.5 L 288 60.5 L 288 58 Z M 304 59 L 304 61 L 294 61 Q 292 67 296 67 L 296 71 L 299 71 L 299 76 L 302 76 L 302 84 L 304 85 L 304 92 L 307 93 L 307 107 L 309 108 L 309 136 L 312 136 L 312 236 L 309 237 L 309 267 L 307 268 L 307 283 L 304 284 L 304 293 Q 301 292 302 301 L 299 301 L 299 306 L 296 306 Q 298 312 294 312 L 294 316 L 506 316 L 506 316 L 506 247 L 505 247 L 505 249 L 499 249 L 499 252 Q 493 251 494 254 L 486 254 L 486 257 L 480 257 L 479 259 L 467 259 L 466 262 L 435 262 L 434 265 L 325 265 L 324 262 L 319 262 L 319 212 L 324 211 L 324 209 L 385 209 L 386 211 L 416 211 L 417 214 L 434 214 L 435 217 L 445 217 Q 444 220 453 219 L 453 222 L 460 222 L 460 224 L 465 224 L 465 150 L 458 150 L 458 153 Q 452 152 453 155 L 442 155 L 442 158 L 430 158 L 429 160 L 414 160 L 413 163 L 360 163 L 359 166 L 325 166 L 324 163 L 321 163 Q 322 159 319 160 L 319 114 L 324 113 L 324 110 L 382 110 L 383 113 L 460 113 L 461 115 L 473 115 L 474 118 L 484 118 L 485 120 L 492 120 L 492 123 L 497 123 L 497 126 L 502 126 Q 501 129 505 128 L 505 131 L 506 131 L 506 61 L 400 61 L 399 59 L 370 59 L 369 61 L 307 61 Q 307 58 304 59 Z " /><path fill="rgb(255,255,255)" stroke="rgb(255,255,255)" stroke-width="1" opacity="0.9921568627450981" d="M 920 107 L 949.5 107 L 950.5 110 L 975.5 110 L 976.5 113 L 988.5 113 L 989.5 115 L 999 115 L 999 118 L 1005 118 L 1005.5 120 L 1012 120 L 1012 123 L 1017.5 123 L 1018 126 L 1023 126 Q 1022 129 1025 128 L 1025 131 L 1031 131 Q 1030 134 1033 133 L 1033 136 L 1036 136 L 1036 139 Q 1039 138 1038 141 L 1041 141 L 1041 146 L 1044 146 Q 1043 150.3 1046 149.5 L 1046 154 L 1049 154 L 1049 159 L 1052 159.5 Q 1050.6 168.3 1054 167.5 L 1054 210 L 1052 210 L 1052 217.5 L 1049 218 L 1049 223 L 1046 223 Q 1047 226 1044 225 L 1044 231 L 1041 231 Q 1042.1 234.3 1038 233 L 1038 236 Q 1034.7 234.9 1036 239 L 1033 239 Q 1034 242 1031 241 L 1031 244 L 1025 244 Q 1026 247 1023 246 L 1023 249 L 1018 249 L 1018 252 L 1012.5 252 Q 1013.3 255.5 1007 254 L 1007 257 L 999.5 257 L 998.5 259 L 992 259 L 991.5 262 L 981.5 262 L 980.5 265 L 966.5 265 L 965.5 267 L 902 267 L 901.5 265 L 889 265 L 888.5 262 L 876.5 262 L 876 259 L 868.5 259 Q 869.3 255.5 863 257 L 863 254 L 855 254 Q 856 251 853 252 L 853 249 L 847 249 L 847 246 L 842 246 Q 843 243 840 244 L 840 241 L 837 241 Q 838.1 237.7 834 239 L 834 236 Q 830.7 237.1 832 233 L 829 233 Q 830 230 827 231 L 827 225 L 824 225 Q 825.1 221.7 821 223 Q 822.5 216.7 819 217.5 L 819 210 L 816 209.5 L 816 199.5 L 814 198.5 L 814 175 L 816 174.5 L 816 165.5 L 819 165 L 819 157.5 Q 822.5 158.3 821 152 L 824 152 Q 822.5 147.5 827 149 L 827 144.5 Q 830 145.3 829 141 L 832 141 Q 831 138 834 139 L 834 136 L 837 136 L 837 133 Q 841.1 134.3 840 131 L 845 131 L 845 128 Q 848 129 847 126 L 853 126 L 853 123 L 858 123 L 858 120 L 863 120 L 863 118 L 871 118 L 871.5 115 L 880.5 115 L 881.5 113 L 893.5 113 L 894.5 110 L 919.5 110 L 920 107 Z M 918 111 L 911 113 L 898 113 L 887 116 L 882 116 L 862 123 L 841 136 Q 831 144 825 155 L 820 166 Q 820 172 817 177 L 817 197 Q 820 199 819 205 L 825 221 L 833 231 L 835 234 L 849 245 L 872 256 L 900 263 Q 904 262 906 264 L 924 264 L 925 265 L 962 264 L 992 258 L 1006 253 L 1021 245 L 1038 230 Q 1037 227 1040 228 L 1048 214 L 1052 196 L 1052 181 L 1051 180 L 1050 168 L 1045 156 L 1038 146 L 1027 134 L 1016 127 L 988 116 L 982 116 L 971 113 L 959 113 L 952 111 L 918 111 Z " /><path fill="rgb(255,255,255)" stroke="rgb(255,255,255)" stroke-width="1" opacity="0.9921568627450981" d="M 58 110 L 168.5 110 L 169 113 L 176.5 113 Q 175.7 116.5 182 115 L 182 118 Q 185 117 184 120 L 187 120 Q 185.5 124.5 190 123 Q 188.5 129.3 192 128.5 L 192 147 L 190 147 L 190 153 L 187 153 Q 188.1 156.3 184 155 L 184 159.5 Q 181 158.8 182 163 L 177 163 L 177 166 L 171.5 166 Q 172.3 169.5 166 168 L 166 171 L 161 171 L 161 173 L 153 173 L 152.5 176 L 122.5 176 L 121.5 179 L 56 179 L 56 173 L 53 172.5 L 53 115 L 56 115 Q 55 112 58 113 L 58 110 Z M 66 113 L 59 115 L 57 117 L 57 172 L 61 175 L 65 176 Q 69 177 71 175 L 128 175 L 135 173 L 144 173 L 159 170 L 178 160 Q 186 154 189 144 Q 191 131 186 126 L 175 116 L 163 113 L 66 113 Z " /><path fill="rgb(255,255,255)" stroke="rgb(255,255,255)" stroke-width="1" opacity="0.9921568627450981" d="M 574 110 L 582.5 110 L 583 112.5 L 584 112.5 L 584.5 110 L 679 110 L 679 113 L 689.5 113 Q 688.7 116.5 695 115 L 695 118 L 700 118 L 700 123 L 703 123 Q 702 127.3 705 126.5 L 705 147 L 703 147.5 L 703 155 L 700 155 Q 701.5 159.5 697 158 Q 698 161 695 160 L 695 163 L 692 163 L 692 166 L 687.5 166 Q 688.3 169.5 682 168 L 682 171 Q 675.7 169.5 676.5 173 L 666 173 L 665.5 176 L 635.5 176 L 634.5 179 L 571 179 Q 572 174.8 569 175.5 L 569 115 Q 572 116 571 113 L 574 113 L 574 110 Z M 598 113 L 597 114 L 577 114 L 575 115 L 572 118 L 572 173 L 579 176 L 583 175 L 641 175 L 648 173 L 658 173 L 673 170 L 690 162 Q 698 156 702 146 L 702 131 L 699 125 L 689 116 L 675 113 L 598 113 Z " /><path fill="rgb(255,255,255)" stroke="rgb(255,255,255)" stroke-width="1" opacity="0.996078431372549" d="M 929 54 L 938.5 54 L 939.5 56 L 958.5 56 L 959.5 59 L 971.5 59 L 972.5 61 L 980 61 L 980.5 64 L 988 64 L 988 67 L 992.5 67 Q 991.7 70.5 998 69 L 998 72 L 1004 72 Q 1003 75 1006 74 L 1006 77 L 1011 77 L 1011 80 L 1014 80 Q 1012.9 83.3 1017 82 L 1017 85 L 1022 85 Q 1021 88 1024 87 L 1024 90 L 1027 90 L 1027 93 L 1030 93 Q 1029 96 1032 95 L 1032 100 L 1035 100 L 1035 103 Q 1038.3 101.9 1037 106 L 1040 106 L 1040 111 L 1043 111 L 1043 116 Q 1046.3 114.9 1045 119 L 1048 119 L 1048 124 L 1051 124 L 1051 131.5 Q 1054.5 130.7 1053 137 L 1056 137.5 Q 1054.6 146.3 1058 145.5 L 1058 154.5 L 1061 155.5 L 1061 172.5 L 1064 173.5 L 1064 204 L 1061 204.5 L 1061 218.5 L 1058 219.5 L 1058 229.5 Q 1054.6 228.7 1056 237.5 L 1053 238 L 1053 244.5 L 1051 245 L 1051 251 L 1048 251 L 1048 256 L 1045 256 L 1045 260.5 Q 1041.5 259.7 1043 266 L 1040 266 Q 1041.5 270.5 1037 269 L 1037 273.5 Q 1034 272.8 1035 277 L 1032 277 Q 1033 280 1030 279 L 1030 282 L 1027 282 Q 1028.1 285.3 1024 284 L 1024 287 Q 1020.7 285.9 1022 290 L 1019 290 Q 1020 293 1017 292 L 1017 295 L 1014 295 Q 1015.1 298.3 1011 297 L 1011 300 L 1006 300 L 1006 303 L 1001 303 Q 1002.1 306.3 998 305 L 998 308 L 993 308 L 993 310 L 985 310 L 985 313 L 980 313 L 980 316 L 970.5 316 L 969.5 318 L 959.5 318 L 958.5 321 L 908 321 L 908 318 L 898.5 318 L 897.5 316 L 890 316 L 890 313 L 882 313 L 882 310 L 877.5 310 Q 878.3 306.5 872 308 L 872 305 Q 865.7 306.5 866.5 303 L 861 303 L 861 300 Q 857.7 301.1 859 297 Q 854.8 298 855.5 295 L 851 295 L 851 292 L 848 292 Q 849 289 846 290 L 846 287 L 843 287 L 843 284 Q 840 285 841 282 L 838 282 Q 839.5 277.5 835 279 L 835 274 Q 831.7 275.1 833 271 L 830 271 L 830 266 Q 827 267 828 264 L 825 264 L 825 258 L 822 258 L 822 253.5 Q 818.5 254.3 820 248 L 817 247.5 L 817 240.5 Q 813.6 241.3 815 232.5 L 812 231.5 L 812 222 L 809 221.5 L 809 206.5 L 807 205.5 L 807 168 L 809 167.5 L 809 153.5 L 812 152.5 L 812 142.5 L 815 142 L 815 134 L 817 134 L 817 129 L 820 129 L 820 124 L 822 124 L 822 116 L 825 116 Q 823.9 112.7 828 114 L 828 108 Q 831 109 830 106 L 833 106 L 833 100 Q 836 101 835 98 L 838 98 L 838 95 L 841 95 Q 840 92 843 93 L 843 90 L 846 90 L 846 87 Q 849 88 848 85 L 851 85 L 851 82 Q 855.3 83 854.5 80 L 859 80 L 859 77 Q 862.3 78.1 861 74 L 867 74 Q 866 71 869 72 L 869 69 Q 875.3 70.5 874.5 67 L 882 67 L 882 64 L 887 64 L 887 61 L 894.5 61 L 895.5 59 L 907.5 59 L 908.5 56 L 928.5 56 L 929 54 Z M 920 107 L 920 110 L 895 110 L 894 113 L 882 113 L 881 115 L 872 115 L 871 118 L 863 118 L 863 120 L 858 120 L 858 123 L 853 123 L 853 126 L 847 126 Q 848 129 845 128 L 845 131 L 840 131 Q 841 134 837 133 L 837 136 L 834 136 L 834 139 Q 831 138 832 141 L 829 141 Q 830 145 827 145 L 827 149 Q 823 148 824 152 L 821 152 Q 823 158 819 158 L 819 165 L 816 166 L 816 175 L 814 175 L 814 199 L 816 200 L 816 210 L 819 210 L 819 218 Q 823 217 821 223 Q 825 222 824 225 L 827 225 L 827 231 Q 830 230 829 233 L 832 233 Q 831 237 834 236 L 834 239 Q 838 238 837 241 L 840 241 L 840 244 Q 843 243 842 246 L 847 246 L 847 249 L 853 249 L 853 252 Q 856 251 855 254 L 863 254 L 863 257 Q 869 255 869 259 L 876 259 L 877 262 L 889 262 L 889 265 L 902 265 L 902 267 L 966 267 L 967 265 L 981 265 L 982 262 L 992 262 L 992 259 L 999 259 L 1000 257 L 1007 257 L 1007 254 Q 1013 255 1013 252 L 1018 252 L 1018 249 L 1023 249 L 1023 246 Q 1026 247 1025 244 L 1031 244 L 1031 241 Q 1034 242 1033 239 L 1036 239 Q 1035 235 1038 236 L 1038 233 Q 1042 234 1041 231 L 1044 231 L 1044 225 Q 1047 226 1046 223 L 1049 223 L 1049 218 L 1052 218 L 1052 210 L 1054 210 L 1054 168 Q 1051 168 1052 160 L 1049 159 L 1049 154 L 1046 154 L 1046 150 Q 1043 150 1044 146 L 1041 146 L 1041 141 L 1038 141 Q 1039 138 1036 139 L 1036 136 L 1033 136 L 1033 133 Q 1030 134 1031 131 L 1025 131 L 1025 128 Q 1022 129 1023 126 L 1018 126 L 1018 123 L 1012 123 L 1012 120 L 1006 120 L 1005 118 L 999 118 L 999 115 L 990 115 L 989 113 L 977 113 L 976 110 L 951 110 L 950 107 L 920 107 Z " /><path fill="rgb(255,255,255)" stroke="rgb(255,255,255)" stroke-width="1" opacity="0.996078431372549" d="M 101 56 L 182.5 56 L 183.5 59 L 193.5 59 L 194.5 61 L 202 61 L 202 64 L 207 64 L 207 67 L 211.5 67 Q 210.7 70.5 217 69 L 217 72 L 220 72 Q 219 75 222 74 L 222 77 Q 226.5 75.5 225 80 L 228 80 Q 227 83 230 82 L 230 87 L 233 87 L 233 93 L 235 93.5 L 235 100 L 238 100.5 L 238 126 L 235 126 L 235 132.5 L 233 133 L 233 139 L 230 139 Q 231 142 228 141 L 228 144 L 225 144 L 225 149 L 222 149 L 222 152 Q 219 151 220 154 L 215 154 L 215 157 Q 210.8 156 211.5 159 L 207 159 L 207 162 L 202 162 L 202 165 L 194.5 165 Q 195.3 168.5 189 167 L 189 170 L 173.5 170 L 172.5 172 L 165 172 L 165 175 L 160 175 L 160 182.5 L 159.5 183 L 56 183 L 56 185 L 53 185.5 L 53 254 L 56 254 L 56 257 Q 59.1 256.3 58.5 259 L 68.5 259 L 69.5 262 L 86.5 262 L 87.5 265 L 109.5 265 L 110.5 267 L 161 267 L 161.5 265 L 173.5 265 L 174 262 L 182 262 L 182 259 L 186.5 259 Q 185.8 256 190 257 L 190 254 Q 193 255 192 252 L 195 252 L 195 249 Q 198.3 250.1 197 246 L 200 246 L 200 241 L 203 240.5 L 203 211 L 200 211 L 200 206 L 197 206 Q 198 203 195 204 L 195 201 L 192 201 L 192 198 Q 189 199 190 196 L 184 196 L 184 193 Q 181 194 182 191 L 174 191 L 174 188 L 169 188 L 169 185 L 163.5 185 L 163.5 184 L 172.5 184 L 173.5 186 L 193.5 186 L 194.5 189 L 206.5 189 L 207 192 Q 213.3 190.5 212.5 194 L 220 194 L 220 197 L 225 197 Q 223.9 200.3 228 199 L 228 202 L 233 202 L 233 205 Q 236 204 235 207 L 238 207 L 238 210 L 241 210 Q 240 213 243 212 L 243 215 L 246 215 L 246 219.5 Q 249 218.8 248 223 L 251 223 L 251 230.5 L 254 231 L 254 238.5 L 256 239.5 L 256 264 L 254 264.5 L 254 274 L 251 274 L 251 279 L 248 279 L 248 284 L 246 284 L 246 290 L 243 290 Q 244 293 241 292 L 241 295 L 238 295 Q 239.1 298.3 235 297 L 235 300 Q 231.7 298.9 233 303 L 230 303 L 230 305 L 225 305 L 225 308 Q 220.9 306.7 222 310 L 215 310 L 215 313 L 209 313 L 209 316 L 202.5 316 L 201.5 318 L 186.5 318 L 185.5 321 L 124 321 L 123.5 318 L 72.5 318 L 71.5 316 L 28.5 316 L 28 311 L 31 311 L 31 306.5 Q 34.5 307.3 33 301 L 36 301 L 36 293.5 L 38 292.5 L 38 283.5 L 41 282.5 L 41 270.5 L 44 269.5 L 44 231.5 L 46 230.5 L 46 144 L 44 143.5 L 44 105.5 L 41 104.5 L 41 92.5 L 38 91.5 L 38 81.5 L 36 80.5 L 36 73 L 33 73 Q 34.5 66.7 31 67.5 L 31 63 Q 26.9 64.3 28 61 L 37.5 61 L 38.5 59 L 100.5 59 L 101 56 Z M 58 110 L 58 113 Q 55 112 56 115 L 53 115 L 53 173 L 56 173 L 56 179 L 122 179 L 123 176 L 153 176 L 153 173 L 161 173 L 161 171 L 166 171 L 166 168 Q 172 170 172 166 L 177 166 L 177 163 L 182 163 Q 181 159 184 160 L 184 155 Q 188 156 187 153 L 190 153 L 190 147 L 192 147 L 192 129 Q 188 129 190 123 Q 186 125 187 120 L 184 120 Q 185 117 182 118 L 182 115 Q 176 117 177 113 L 169 113 L 169 110 L 58 110 Z " /><path fill="rgb(255,255,255)" stroke="rgb(255,255,255)" stroke-width="1" opacity="0.996078431372549" d="M 622 56 L 695.5 56 L 696.5 59 L 708.5 59 L 709.5 61 L 717 61 L 717 64 L 722 64 L 722 67 L 728 67 Q 727 70 730 69 L 730 72 Q 734.1 70.7 733 74 L 738 74 L 738 80 L 741 80 Q 740 83 743 82 L 743 85 L 746 85 L 746 89.5 Q 749.5 88.7 748 95 L 751 95.5 L 751 107.5 L 754 108.5 L 754 120 L 751 120 L 751 130.5 L 748 131 L 748 135.5 Q 744.5 134.7 746 141 L 743 141 L 743 144 Q 740 143 741 146 L 738 146 L 738 149 Q 733.5 147.5 735 152 Q 732 151 733 154 L 730 154 L 730 157 L 725.5 157 Q 726.3 160.5 720 159 L 720 162 L 715 162 L 715 165 L 709 165 L 708.5 167 L 702 167 L 701.5 170 L 686.5 170 L 685.5 172 L 678 172 L 678 175 L 673 175 L 673 182.5 L 672.5 183 L 571 183 Q 571.8 186.1 569 185.5 L 569 257 Q 572.1 256.3 571.5 259 L 582 259 L 582.5 262 L 596.5 262 L 597.5 265 L 620.5 265 L 621.5 267 L 677 267 L 677.5 265 L 687 265 L 687.5 262 L 695 262 L 695 259 L 699.5 259 Q 698.7 255.5 705 257 L 705 254 L 708 254 Q 707 251 710 252 L 710 249 L 713 249 L 713 244 L 716 243.5 L 716 236 L 718 235.5 L 718 217 L 716 216.5 L 716 209 L 713 209 L 713 206 L 710 206 Q 711 203 708 204 L 708 198 L 703 198 Q 704.1 194.7 700 196 L 700 193 L 695.5 193 Q 696.3 189.5 690 191 L 689.5 188 L 682 188 L 682 186 L 708.5 186 L 709.5 189 L 719.5 189 L 720 192 L 727.5 192 Q 726.7 195.5 733 194 L 733 197 L 737.5 197 Q 736.7 200.5 743 199 L 743 202 Q 747.5 200.5 746 205 L 750.5 205 Q 749.8 208 754 207 L 754 210 Q 757 209 756 212 L 759 212 L 759 218 Q 762 217 761 220 L 764 220 L 764 225 L 767 225 L 767 232.5 L 769 233.5 L 769 271 L 767 271 L 767 277 L 764 277 L 764 282 L 761 282 L 761 286.5 Q 757.5 285.7 759 292 L 756 292 L 756 295 Q 753 294 754 297 L 751 297 L 751 300 Q 746.5 298.5 748 303 L 743 303 Q 744 306 741 305 L 741 308 L 735.5 308 Q 736.3 311.5 730 310 L 730 313 L 725 313 L 725 316 L 715.5 316 L 714.5 318 L 702.5 318 L 701.5 321 L 635 321 L 634.5 318 L 585.5 318 L 584.5 316 L 544.5 316 L 544 315.5 L 544 309 L 546 309 L 546 304 L 549 304 L 549 298 L 552 297.5 L 552 288.5 L 554 287.5 L 554 278.5 L 557 277.5 L 557 259.5 L 559 258.5 L 559 118 L 557 117.5 L 557 99.5 L 554 98.5 L 554 86.5 L 552 85.5 L 552 79 L 549 79 L 549 71.5 L 546 71 L 546 66.5 Q 542.5 67.3 544 61 L 558.5 61 L 559.5 59 L 621.5 59 L 622 56 Z M 574 110 L 574 113 L 571 113 Q 572 116 569 115 L 569 176 Q 572 175 571 179 L 635 179 L 636 176 L 666 176 L 666 173 L 677 173 Q 676 169 682 171 L 682 168 Q 688 170 688 166 L 692 166 L 692 163 L 695 163 L 695 160 Q 698 161 697 158 Q 702 160 700 155 L 703 155 L 703 148 L 705 147 L 705 127 Q 702 127 703 123 L 700 123 L 700 118 L 695 118 L 695 115 Q 689 117 690 113 L 679 113 L 679 110 L 585 110 L 584 113 L 583 113 L 583 110 L 574 110 Z " /><path fill="rgb(255,255,255)" stroke="rgb(255,255,255)" stroke-width="1" opacity="0.996078431372549" d="M 304 59 Q 307.1 58.3 306.5 61 L 369 61 L 369.5 59 L 399 59 L 399.5 61 L 506 61 L 506 130.5 L 505 130.5 L 505 128 Q 500.9 129.3 502 126 L 497 126 L 497 123 L 492 123 L 492 120 L 484.5 120 L 483.5 118 L 473.5 118 L 472.5 115 L 460.5 115 L 459.5 113 L 382.5 113 L 381.5 110 L 324 110 L 324 113 L 319 113.5 L 319 160 Q 322.3 158.9 321 163 L 324 163 L 324.5 166 L 359 166 L 359.5 163 L 412.5 163 L 413.5 160 L 428.5 160 L 429.5 158 L 441.5 158 L 442 155 L 452.5 155 Q 451.7 151.5 458 153 L 458 150 L 465 150 L 465 223.5 L 460 224 L 459.5 222 L 453 222 L 452.5 219 Q 443.7 220.4 444.5 217 L 434.5 217 L 433.5 214 L 416.5 214 L 415.5 211 L 385.5 211 L 384.5 209 L 324 209 L 324 211 L 319 211.5 L 319 262 L 324 262 L 324.5 265 L 434 265 L 434.5 262 L 465.5 262 L 466.5 259 L 478.5 259 L 479.5 257 L 486 257 L 486 254 L 493.5 254 Q 492.7 250.5 499 252 L 499 249 L 505 249 L 505 246.5 L 506 246.5 L 506 315.5 L 505.5 316 L 294 316 L 294 311.5 Q 297.5 312.3 296 306 L 299 306 L 299 301 L 302 300.5 Q 300.6 291.7 304 292.5 L 304 283.5 L 307 282.5 L 307 267.5 L 309 266.5 L 309 236.5 L 312 235.5 L 312 136 L 309 135.5 L 309 107.5 L 307 106.5 L 307 92.5 L 304 92 L 304 84.5 L 302 83.5 L 302 76 L 299 76 L 299 71 L 296 71 L 296 66.5 Q 292.5 67.3 294 61 L 303.5 61 L 304 59 Z " /><path fill="rgb(0,0,0)" stroke="rgb(0,0,0)" stroke-width="1" opacity="0" d="M 0 0 L 1110.5 0 L 1111 0.5 L 1111 340 L 0.5 340 L 0 339.5 L 0 0 Z M 134 47 L 133 48 L 113 48 L 105 50 L 69 50 L 68 51 L 51 51 L 50 52 Q 45 53 44 51 L 23 51 L 18 53 L 15 57 L 17 64 L 25 76 L 32 99 Q 32 108 35 115 L 36 159 L 37 160 L 37 220 L 36 221 L 35 261 Q 32 267 32 277 L 30 281 L 30 286 L 25 298 L 25 301 L 22 304 L 14 319 L 15 322 L 21 325 L 33 325 L 34 324 L 56 324 L 57 325 L 78 326 L 79 327 L 122 327 L 123 328 L 137 328 L 138 329 L 185 329 Q 190 326 201 327 L 206 324 L 211 324 L 221 319 L 224 319 L 240 308 L 243 306 L 244 303 L 247 302 Q 246 299 249 300 L 255 291 Q 254 288 257 289 L 257 286 L 260 283 Q 259 278 262 277 L 262 272 L 265 267 L 265 235 L 262 231 L 262 226 L 259 220 Q 260 217 257 218 Q 258 214 254 213 Q 255 209 252 210 L 249 206 Q 250 203 247 204 L 247 202 L 243 199 Q 240 200 241 198 L 227 188 Q 222 189 223 186 Q 218 187 216 183 L 211 183 L 206 180 L 200 180 Q 197 177 192 178 L 200 173 L 204 173 L 214 168 L 223 162 L 223 160 L 226 160 Q 225 157 228 158 L 231 153 L 234 152 Q 233 149 236 150 L 236 147 L 239 146 Q 238 142 241 143 L 247 127 L 247 99 L 244 93 L 244 89 L 241 85 Q 242 81 239 82 L 239 80 L 236 78 L 236 76 L 231 69 L 216 58 L 205 53 L 201 53 L 196 50 L 188 50 L 185 48 L 175 48 L 174 47 L 134 47 Z M 653 47 L 652 48 L 632 48 L 623 50 L 587 50 L 576 52 L 535 52 L 530 55 L 530 62 L 538 74 L 545 93 L 546 104 L 548 108 L 548 119 L 551 129 L 551 247 L 548 257 L 548 268 L 546 273 L 545 283 L 543 286 L 543 291 L 541 293 L 538 303 L 530 315 L 529 322 L 537 326 L 539 325 L 556 325 L 557 324 L 582 325 L 593 327 L 633 327 L 634 328 L 649 328 L 650 329 L 701 329 Q 706 326 717 327 L 722 324 L 732 322 L 748 313 Q 750 314 749 311 L 752 311 L 756 308 L 759 303 L 762 302 Q 761 299 764 300 L 775 282 L 775 278 L 778 274 L 778 265 L 780 262 L 780 241 Q 776 237 778 229 L 775 226 L 775 222 L 772 217 Q 773 214 770 215 L 770 213 L 762 202 L 742 188 L 739 188 L 730 183 L 726 183 L 720 180 L 715 180 L 712 178 Q 706 180 707 176 L 725 170 L 738 162 L 743 157 Q 745 158 744 155 L 747 154 Q 746 151 749 152 L 749 149 L 751 149 L 757 140 L 757 137 L 760 133 Q 759 127 762 126 L 762 101 L 760 99 L 760 94 L 757 90 L 757 87 L 754 83 Q 755 79 752 80 L 752 78 L 749 76 L 744 68 L 741 66 Q 738 67 739 65 L 730 58 Q 725 59 726 56 Q 721 56 719 53 L 714 53 L 709 50 Q 700 52 698 48 L 688 48 L 687 47 L 653 47 Z M 920 47 L 919 48 L 910 48 L 906 50 L 898 50 L 893 53 L 887 53 L 885 55 L 874 58 L 871 61 L 864 63 L 856 69 Q 852 68 853 71 L 845 77 Q 842 76 843 79 L 840 81 Q 841 83 839 82 L 835 87 L 832 89 Q 833 91 830 90 L 824 99 Q 825 101 822 100 L 822 103 L 816 111 L 806 133 L 806 137 L 803 142 Q 804 148 801 150 L 801 160 L 798 167 L 798 210 L 801 218 L 801 227 Q 804 229 803 235 L 806 241 L 806 245 L 811 254 L 811 257 L 814 260 L 814 263 L 829 286 Q 838 298 852 306 Q 854 305 853 308 L 859 311 Q 862 310 861 313 L 866 314 L 873 319 L 876 319 L 878 321 Q 884 321 887 324 L 891 324 L 897 327 L 903 327 L 908 329 L 916 329 L 917 330 L 951 330 L 964 327 L 972 327 L 977 324 L 987 322 L 991 319 L 995 319 L 1001 316 L 1024 301 L 1025 298 L 1027 298 L 1038 287 Q 1037 284 1040 285 L 1054 264 Q 1053 260 1056 261 L 1059 251 L 1064 242 L 1064 237 L 1067 232 L 1067 227 L 1070 220 L 1070 213 L 1072 209 L 1072 170 L 1070 166 L 1069 154 L 1067 151 L 1067 145 L 1064 140 L 1064 135 Q 1061 134 1062 130 L 1059 126 L 1059 123 L 1054 113 L 1043 97 Q 1044 94 1041 95 L 1038 90 Q 1026 76 1011 66 L 995 58 L 992 58 L 988 55 Q 983 56 982 53 L 976 53 L 971 50 L 963 50 L 959 48 L 951 48 L 950 47 L 920 47 Z M 288 51 L 280 55 L 280 61 L 285 67 L 293 82 L 293 86 L 295 89 L 296 97 L 298 101 L 298 109 L 301 116 L 302 175 L 303 176 L 303 207 L 302 208 L 302 228 L 301 229 L 301 258 L 298 266 L 298 274 L 296 278 L 295 287 L 293 290 L 293 294 L 288 302 L 288 305 L 280 316 L 280 322 L 285 325 L 299 325 L 300 324 L 496 324 L 497 325 L 500 324 L 505 325 Q 511 326 514 323 L 515 322 L 515 235 L 510 231 L 493 243 L 490 243 L 482 248 Q 474 247 472 251 Q 464 250 461 253 L 441 254 L 440 255 L 417 255 L 416 256 L 331 255 L 328 253 L 328 219 L 331 218 L 381 218 L 388 220 L 408 220 L 418 223 L 427 223 Q 430 226 438 225 L 443 228 L 446 228 L 458 233 L 465 238 Q 471 239 473 236 L 473 139 L 471 136 L 464 136 L 455 142 Q 452 141 453 144 L 449 144 L 443 147 L 439 147 L 437 149 L 430 149 L 425 152 Q 415 150 411 154 L 389 154 L 388 155 L 331 155 L 330 154 L 328 154 L 328 121 L 332 120 L 453 121 L 460 124 L 468 124 L 470 126 L 476 126 Q 478 130 485 129 L 495 134 L 510 145 L 515 142 L 515 57 L 514 54 L 510 52 L 490 52 L 489 53 L 325 53 L 324 52 L 292 52 L 288 51 Z " /><path fill="rgb(0,0,0)" stroke="rgb(0,0,0)" stroke-width="1" opacity="0" d="M 925.5 117 L 942.5 117 L 943.5 118 L 954.5 118 L 955.5 119 L 970.5 119 L 973.5 121 L 983.5 121 L 987.5 124 L 992.5 124 Q 993.5 127 998.5 126 L 1002.5 129 L 1005.5 129 L 1015.5 134 L 1030 145 L 1036.5 155 L 1038 155 L 1038 159 L 1040 159 L 1040 162.5 L 1045 174.5 L 1045 200.5 L 1038 220 L 1035 221.5 L 1030 230 L 1011.5 243 L 1001.5 248 L 996 249 Q 997.1 252.5 989.5 251 L 987.5 253 Q 979.4 251.9 976.5 256 Q 966.8 254.3 962.5 258 L 924.5 259 L 923.5 258 L 905.5 258 Q 901.5 254.5 892.5 256 L 887.5 253 L 881.5 253 Q 880 249.5 873.5 251 L 870.5 248 L 866.5 248 L 859.5 243 L 856 243 Q 857.1 240.3 854.5 241 Q 852.6 237.4 848 238 L 846.5 235 L 843.5 233 L 837 225 L 835 225 L 835 222 Q 832 223.3 833 219.5 Q 828.8 217.9 830 212 Q 827.3 213.1 828 210.5 L 827 205.5 L 825 203.5 L 825 195.5 L 824 194.5 L 823 183.5 L 825 176.5 L 825 170.5 L 827 168.5 L 827 164.5 Q 830.9 162.4 830 157 Q 832.7 158.1 832 155.5 L 840 144 L 862.5 129 L 866.5 129 L 869.5 126 Q 874.5 127 875.5 124 L 880.5 124 L 884.5 121 L 894.5 121 L 897.5 119 L 912.5 119 L 913.5 118 L 924.5 118 L 925.5 117 Z " /><path fill="rgb(0,0,0)" stroke="rgb(0,0,0)" stroke-width="1" opacity="0" d="M 71.5 119 L 160.5 119 Q 163.8 122.8 172 121 Q 170.9 123.7 173.5 123 L 179 126 Q 183.7 131.1 182 143.5 Q 179.4 150.9 173.5 155 Q 170.9 154.3 172 157 L 169.5 157 L 166.5 160 L 162.5 162 L 158.5 162 L 154.5 165 Q 146.2 163.7 142.5 167 L 119.5 168 L 108.5 170 L 79.5 170 L 75.5 169 Q 74.3 171.2 69.5 170 L 64 167.5 L 63 150.5 L 64 149.5 L 64 121 L 71.5 119 Z " /><path fill="rgb(0,0,0)" stroke="rgb(0,0,0)" stroke-width="1" opacity="0" d="M 600.5 119 L 673.5 119 Q 676.8 122.2 684.5 121 Q 685.8 124.7 690 124 Q 688.9 126.7 691.5 126 L 696 132.5 L 696 143.5 Q 693.3 144.3 694 148.5 L 685.5 157 L 677.5 162 L 672.5 162 L 669.5 165 Q 660.7 163.2 657.5 167 L 632.5 168 L 623.5 170 L 580 170 Q 580.8 166.9 578 167.5 L 578 121 L 583.5 120 L 599.5 120 L 600.5 119 Z " /><path fill="rgb(0,0,0)" stroke="rgb(0,0,0)" stroke-width="1" opacity="0" d="M 65.5 192 L 147.5 192 Q 151.5 195.5 160.5 194 L 165.5 197 L 175.5 199 L 181.5 204 L 184 204 L 185.5 207 L 189 209.5 L 194 218.5 L 194 234.5 Q 191.2 243.2 184.5 248 Q 182.4 251.9 177 251 Q 178.3 254.7 172.5 253 L 168.5 256 Q 160.2 254.7 156.5 258 L 113.5 258 L 108.5 256 L 91.5 256 Q 86.3 251.6 75.5 253 Q 73.2 249.8 66.5 251 L 64 248.5 L 64 193.5 L 65.5 192 Z " /><path fill="rgb(0,0,0)" stroke="rgb(0,0,0)" stroke-width="1" opacity="0" d="M 579.5 192 L 661.5 192 Q 665.5 195.5 674.5 194 L 679.5 197 L 689.5 199 L 704 211.5 L 707 216.5 L 708 229.5 Q 705.3 231.2 707 237.5 L 704 243 Q 701.3 241.9 702 244.5 L 694.5 251 L 690.5 253 L 686.5 253 L 682.5 256 Q 674.2 254.7 670.5 258 L 625.5 258 Q 617.9 254.1 604.5 256 L 597.5 253 L 588.5 253 Q 586 249.8 580 251 L 578 247.5 L 578 207.5 L 577 206.5 L 577 195.5 L 579.5 192 Z " /></svg>