<svg width="1111" height="338" version="1.1" xmlns="http://www.w3.org/2000/svg" desc="Created with imagetracer.js version 1.2.6" ><path fill="rgb(219,229,243)" stroke="rgb(219,229,243)" stroke-width="1" opacity="0.32941176470588235" d="M 164.5 37 L 188.5 37 L 189.5 38 L 198.5 38 L 202.5 40 L 212.5 40 L 216.5 43 L 222.5 43 Q 223.3 45.8 227.5 45 L 230.5 48 L 233.5 48 Q 234.8 51.7 239 51 Q 237.9 53.7 240.5 53 L 243 54 L 243 56 Q 246.7 54.5 246 57.5 L 249 59 Q 247.9 61.7 250.5 61 L 252 64 Q 255 62.8 254 66.5 Q 259.4 70 260 77 Q 264 75.6 262 82.5 L 265 87.5 L 265 102.5 L 266 103.5 L 265 104.5 L 265 118.5 L 262 123.5 L 262 127.5 L 256 138 L 254 138 L 254 141 Q 251.3 139.9 252 142.5 L 249 144 L 247.5 147 L 244.5 149 L 229.5 160 L 214 166.5 Q 213.1 169.5 217.5 168 L 220.5 170 L 224.5 170 L 230.5 173 L 233.5 173 L 242.5 178 L 245.5 178 L 256.5 186 L 259 186 L 260.5 189 L 263.5 191 L 265 194 L 267 194 Q 265.9 196.7 268.5 196 L 273 204 L 275 204 L 275 207 Q 277.7 205.9 277 208.5 L 280 213.5 L 280 219.5 L 283 223.5 L 283 257.5 L 280 261.5 L 280 268.5 Q 277.3 269.3 278 273.5 L 275 276.5 L 272 284 L 270 284 Q 271.5 287.8 268.5 287 L 258.5 298 L 252.5 302 L 236.5 311 Q 232.3 310.3 231.5 313 L 225 313 Q 226.1 315.7 223.5 315 L 222.5 316 L 213.5 316 L 211.5 318 Q 205.2 316.3 203.5 319 L 143.5 319 L 142.5 318 L 121.5 318 L 116.5 316 L 68.5 316 L 57.5 314 L 40.5 314 L 34 313 L 33 306.5 Q 36.7 305.2 36 301 Q 39 302.3 38 298.5 L 44 290.5 L 47 277 L 49 276.5 L 49 268.5 L 51 266.5 Q 50.1 257.6 54 253.5 L 54 233.5 L 57 218.5 L 57 141.5 L 56 140.5 L 55 124.5 L 54 123.5 L 54 102.5 L 52 100.5 L 51 88.5 L 49 86.5 L 49 79.5 L 46 75.5 L 46 70.5 Q 43 69.3 44 65 Q 41.3 66.1 42 63.5 L 38 57.5 L 38 55 Q 35 56.3 36 52.5 L 35 50 Q 31.7 51.3 33 46.5 L 34 44 L 41.5 42 L 78.5 42 L 79.5 41 L 89.5 41 L 90.5 40 L 138.5 40 L 144.5 38 L 163.5 38 L 164.5 37 Z M 162 40 L 161 41 L 132 41 L 131 42 L 95 43 L 94 44 L 36 46 Q 44 54 48 66 L 54 86 L 57 103 L 57 110 L 58 111 L 59 150 L 60 151 L 60 209 L 59 210 L 59 231 L 58 232 L 58 244 L 57 245 L 56 259 L 50 284 L 37 309 L 87 310 L 88 311 L 108 311 L 109 312 L 127 312 L 128 313 L 151 313 L 152 314 L 201 314 L 202 313 L 210 313 L 224 310 L 238 305 L 256 294 Q 274 280 279 252 L 279 230 Q 277 228 278 224 Q 274 210 267 201 Q 254 184 233 177 L 211 171 L 183 169 L 214 161 Q 229 156 240 147 Q 256 136 261 113 L 261 93 L 260 88 Q 257 74 248 65 Q 236 51 218 45 L 191 40 L 162 40 Z " /><path fill="rgb(219,229,243)" stroke="rgb(219,229,243)" stroke-width="1" opacity="0.32941176470588235" d="M 684.5 37 L 700.5 37 L 701.5 38 L 710.5 38 L 714.5 40 L 725.5 40 L 729.5 43 L 735.5 43 L 737.5 45 L 740.5 45 Q 743.6 48.7 749 49 Q 747.8 52 751.5 51 L 757 54.5 L 757 56 L 759 56 Q 757.9 58.7 760.5 58 L 762 61 L 765 61 L 765 64 L 767 64 Q 765.9 66.7 768.5 66 L 775 76.5 Q 774.4 82.1 778 83.5 L 778 89.5 L 780 91.5 L 780 113.5 L 778 116.5 L 778 122.5 L 775 126.5 L 775 129.5 L 768.5 139 Q 766.3 138.3 767 140.5 L 763.5 145 L 758.5 149 L 757 152 L 754 152 Q 755.3 155 751.5 154 Q 750.3 157.8 746 157 Q 747.1 159.7 744.5 159 L 741 160 Q 742.4 163.7 736.5 162 L 727 167.5 L 748.5 173 L 770 184 Q 768.8 187 772.5 186 L 777 189 L 778.5 192 Q 780.8 191.3 780 193.5 L 788 202.5 L 788 204.5 L 793 211.5 L 793 215.5 L 796 218.5 Q 794.2 227.3 798 230.5 L 798 251.5 Q 794.7 255.2 796 263.5 L 793 267.5 L 793 271.5 L 791 275.5 L 788 278.5 L 788 282 Q 785.3 280.9 786 283.5 L 785 286 Q 782.3 284.9 783 287.5 L 780 292 L 777 293.5 L 777 295 L 775 295 Q 776.1 297.7 773.5 297 L 767 301.5 Q 767.8 304.1 764.5 303 L 759 306 Q 760.4 309.7 754.5 308 L 750.5 311 Q 746.3 310.3 745.5 313 L 740.5 313 L 736.5 316 L 727.5 316 L 724.5 318 Q 718.3 316.3 716.5 319 L 663.5 319 L 662.5 318 L 643.5 318 L 637.5 316 L 590.5 316 L 589.5 315 L 579.5 315 L 568.5 313 L 556.5 313 L 553.5 314 L 549.5 313 L 547 310.5 L 546 308.5 Q 555.6 296.6 561 280.5 L 567 252.5 L 567 242.5 L 569 238.5 L 569 224.5 L 570 223.5 L 570 135.5 L 569 134.5 L 569 119.5 L 567 114.5 L 567 104.5 L 564 92.5 L 564 85.5 L 557 65.5 L 547 49.5 L 547 46.5 L 549.5 43 L 560.5 42 L 561.5 43 L 587.5 43 L 588.5 42 L 597.5 42 L 608.5 40 L 656.5 40 L 661.5 38 L 683.5 38 L 684.5 37 Z M 677 40 L 676 41 L 646 41 L 645 42 L 609 43 L 608 44 L 550 46 Q 558 54 562 66 L 568 85 L 568 90 L 571 102 L 571 110 L 572 111 L 573 144 L 574 145 L 574 212 L 573 213 L 573 234 L 572 235 L 571 253 L 568 270 L 563 287 L 551 309 L 623 311 L 624 312 L 642 312 L 643 313 L 665 313 L 666 314 L 715 314 L 716 313 L 724 313 L 738 310 L 752 305 L 770 294 Q 781 284 788 270 L 792 258 L 793 244 L 794 243 L 793 229 L 791 220 Q 788 208 781 201 Q 769 186 750 178 L 725 171 L 697 169 L 728 161 Q 742 156 753 148 L 768 132 L 774 118 L 775 107 L 776 106 L 775 92 L 773 84 Q 769 73 763 66 Q 751 52 732 45 L 705 40 L 677 40 Z " /><path fill="rgb(219,229,243)" stroke="rgb(219,229,243)" stroke-width="1" opacity="0.32941176470588235" d="M 945.5 37 L 961.5 37 L 962.5 38 L 970.5 38 L 973.5 40 L 986.5 40 L 990.5 43 L 998.5 43 L 1000.5 45 L 1007 46 Q 1005.6 49.7 1011.5 48 L 1015.5 51 L 1018.5 51 Q 1020.5 54.2 1025 54 L 1025 56 L 1028 56 Q 1026.8 59 1030.5 58 L 1033 59 Q 1031.8 62 1035.5 61 L 1040 64 Q 1038.9 67.3 1043 66 L 1043 69 L 1046 69 Q 1044.9 71.7 1047.5 71 L 1049 74 L 1051 74 L 1051 77 L 1054 77 Q 1053 80 1056 79 L 1056 82 L 1057.5 82 L 1059 85 Q 1061.7 83.9 1061 86.5 L 1067 94.5 L 1067 97 Q 1070 95.8 1069 99.5 L 1077 113.5 L 1077 116.5 L 1080 119.5 Q 1078.8 125.3 1082 126.5 L 1082 132.5 L 1085 136.5 L 1085 143.5 L 1087 145.5 L 1088 150.5 L 1088 164.5 L 1090 169.5 L 1090 188.5 Q 1086.4 195.4 1088 207.5 L 1085 213.5 L 1085 220.5 L 1082 224.5 L 1082 230.5 L 1077 240.5 L 1077 245 Q 1074 243.8 1075 247.5 L 1074 251 Q 1070.7 249.7 1072 254.5 L 1069 256 L 1069 259.5 L 1065.5 264 Q 1062.9 263.2 1064 266.5 L 1059 274 Q 1054.9 272.3 1056 276.5 L 1047.5 285 L 1046 285 Q 1047.1 287.7 1044.5 287 L 1043 290 Q 1040 289 1041 292 L 1038 292 L 1038 293.5 L 1032.5 298 L 1030 298 Q 1031.3 301.3 1026.5 300 L 1025 303 L 1021.5 303 L 1014.5 308 L 1009 308 Q 1010.1 310.7 1007.5 310 L 1001.5 313 L 995.5 313 L 992.5 316 L 984.5 316 L 981.5 318 Q 976 316.5 974.5 319 L 930.5 319 Q 929 316.5 923.5 318 L 921.5 316 L 913.5 316 L 909.5 313 L 904.5 313 Q 903.5 310 898.5 311 L 880 301.5 Q 880.9 298.5 876.5 300 L 861 288.5 Q 861.8 286.3 859.5 287 L 856 282 L 853 280.5 Q 853.8 278.3 851.5 279 Q 840.2 266.8 832 251.5 L 822 226.5 L 822 222.5 L 819 213.5 L 819 205.5 L 817 202.5 L 817 192.5 L 816 191.5 L 816 160.5 L 822 129.5 L 830 108 Q 833 109.3 832 105.5 L 843.5 87 Q 845.8 87.8 845 85.5 L 851 77 L 854 75.5 L 854 74 L 856 74 Q 854.9 71.3 857.5 72 L 859 69 Q 862.8 70.5 862 67.5 L 869 62.5 Q 868.2 59.9 871.5 61 L 877 58 L 877 56 L 881 56 L 881 54.5 L 893.5 48 L 898 48 Q 896.8 45 900.5 46 L 906 45 L 906.5 43 L 914.5 43 L 918.5 40 L 931.5 40 L 935.5 38 L 944.5 38 L 945.5 37 Z M 941 40 L 940 41 L 930 41 L 919 43 L 899 49 Q 876 58 860 74 Q 844 89 834 110 L 824 138 L 821 154 L 821 162 L 820 163 L 821 200 L 826 224 Q 834 252 851 272 Q 866 290 889 301 L 909 309 L 921 312 L 933 313 L 934 314 L 948 314 L 949 315 L 979 313 L 996 309 Q 1022 301 1041 285 Q 1061 267 1073 241 L 1082 212 L 1083 201 L 1084 200 L 1084 191 L 1085 190 L 1084 157 L 1079 132 Q 1069 98 1048 77 Q 1031 59 1007 49 L 976 41 L 941 40 Z " /><path fill="rgb(219,229,243)" stroke="rgb(219,229,243)" stroke-width="1" opacity="0.32941176470588235" d="M 306.5 42 L 308.5 43 L 530.5 43 L 533 45.5 L 533 131.5 L 531.5 133 L 526.5 134 L 520 129.5 Q 520.8 126.9 517.5 128 L 512 124.5 Q 512.9 121.5 508.5 123 L 500.5 118 L 494.5 118 L 480.5 113 L 436.5 111 L 435.5 112 L 363.5 112 L 362.5 111 L 347.5 111 L 346 112.5 L 346 142.5 L 349.5 145 L 395.5 145 L 396.5 144 L 422.5 144 L 430.5 142 L 439.5 142 L 446.5 139 L 452.5 139 Q 456 135.5 463.5 136 L 465.5 134 L 469.5 134 Q 471.4 130.4 476 131 Q 474.8 128 478.5 129 Q 479.8 125.2 484 126 Q 482.7 122.7 487.5 124 L 491 126 L 491 226.5 L 488.5 229 L 484.5 230 Q 483.2 226.3 479 227 Q 480.3 224 476.5 225 L 473.5 222 L 469.5 222 L 460.5 217 Q 453.1 217.9 450.5 214 L 437.5 214 L 435.5 212 L 418.5 212 L 404.5 209 L 346 209 L 346 242.5 L 347.5 244 L 449.5 245 L 450.5 244 L 467.5 244 L 468.5 243 L 475.5 243 L 486.5 240 L 491.5 240 L 504.5 236 L 523 225 Q 521.9 222.3 524.5 223 Q 525.7 220.8 530.5 222 L 533 223 L 533 310.5 L 532 313 L 299.5 313 L 299 311.5 Q 296.3 310.4 297 307 L 299 307 L 299 303 Q 301.7 304.1 301 301.5 L 304 300 L 304 296.5 Q 308 295.1 307 290 Q 310.7 291.4 309 285.5 L 312 281.5 Q 310.5 275 314 273.5 L 315 263.5 L 317 260.5 L 317 250.5 L 320 240.5 L 321 169.5 L 320 168.5 L 320 114.5 L 317 104.5 L 317 94.5 L 315 91.5 L 314 81.5 L 312 78.5 L 312 74.5 Q 308.4 72.6 309 66.5 L 304 59.5 L 304 56.5 L 299 51.5 L 298 47.5 L 299 43 L 305.5 43 L 306.5 42 Z M 302 45 L 313 66 L 319 86 L 322 103 L 322 111 L 323 112 L 324 152 L 325 153 L 325 207 L 324 208 L 324 231 L 323 232 L 323 244 L 322 245 L 321 259 L 313 289 L 303 307 L 302 309 L 529 309 L 529 226 L 527 226 Q 517 236 502 241 L 487 245 L 482 245 L 476 247 L 465 247 L 464 248 L 341 248 L 341 204 L 401 204 L 402 205 L 417 205 L 418 206 L 435 207 L 464 213 L 486 224 L 486 128 L 469 138 L 451 143 L 434 146 L 414 147 L 413 148 L 395 148 L 394 149 L 341 149 L 341 106 L 459 106 L 460 107 L 471 107 L 472 108 L 486 109 L 504 114 Q 518 119 528 129 L 529 129 L 529 47 L 528 45 L 302 45 Z " /><path fill="rgb(219,229,243)" stroke="rgb(219,229,243)" stroke-width="1" opacity="0.32941176470588235" d="M 931.5 103 L 973.5 103 L 974.5 104 L 982.5 104 L 1005.5 108 L 1023.5 114 L 1033.5 119 Q 1045.4 125.6 1054 135.5 Q 1062 144.5 1066 157.5 L 1068 167.5 L 1068 187.5 Q 1063.3 212.8 1046.5 226 Q 1028.7 240.7 1002.5 247 L 986.5 250 L 979.5 250 L 978.5 251 L 968.5 251 L 967.5 252 L 937.5 252 L 936.5 251 L 926.5 251 L 925.5 250 L 911.5 249 L 891.5 244 L 869.5 234 L 853 220.5 Q 843.4 210.6 839 195.5 L 837 185.5 L 837 166.5 Q 841.7 141.2 858.5 128 L 881.5 114 L 899.5 108 L 922.5 104 L 930.5 104 L 931.5 103 Z M 929 108 L 925 110 L 909 110 L 905 113 L 899 113 Q 897 116 892 115 L 889 118 L 885 118 L 871 126 Q 868 125 869 128 L 867 128 L 863 131 L 861 134 L 856 136 L 856 139 L 845 155 Q 846 160 843 161 L 843 167 L 841 171 L 841 182 Q 844 186 843 195 L 845 197 Q 843 203 847 202 Q 847 207 851 211 Q 850 213 853 212 L 853 215 L 855 215 L 862 223 Q 864 222 863 225 L 884 237 L 898 242 L 905 243 L 908 245 L 914 245 L 928 248 L 948 248 L 949 249 L 979 248 L 993 245 L 999 245 L 1012 240 L 1016 240 L 1026 235 Q 1029 236 1028 233 Q 1041 229 1049 219 Q 1048 216 1051 217 L 1051 215 L 1053 215 L 1056 210 Q 1055 206 1058 207 L 1061 200 L 1064 187 L 1064 169 L 1061 156 L 1056 146 L 1051 140 Q 1052 137 1049 138 L 1049 136 L 1047 136 L 1046 133 Q 1043 134 1044 131 L 1041 131 L 1041 130 L 1035 126 L 1033 123 Q 1028 124 1026 120 Q 1022 121 1023 118 L 1019 118 L 1015 115 Q 1009 116 1008 113 L 1002 113 L 997 110 L 982 110 L 978 108 L 929 108 Z " /><path fill="rgb(219,229,243)" stroke="rgb(219,229,243)" stroke-width="1" opacity="0.32941176470588235" d="M 133.5 104 L 171.5 104 L 172.5 105 L 182.5 105 L 196.5 110 L 202 115.5 L 204 119.5 L 205 130.5 Q 202.8 142.3 194.5 148 L 181.5 155 L 157.5 161 L 137.5 162 L 136.5 163 L 77 163 L 77 106 L 100.5 106 L 101.5 105 L 132.5 105 L 133.5 104 Z M 85 110 L 84 111 L 82 112 L 82 160 L 127 160 L 128 159 L 153 158 L 174 154 L 186 149 Q 188 150 187 147 L 195 144 L 197 139 L 200 137 L 200 121 L 198 120 L 198 119 L 192 113 Q 185 114 184 110 L 98 110 L 97 111 L 85 110 Z " /><path fill="rgb(219,229,243)" stroke="rgb(219,229,243)" stroke-width="1" opacity="0.32941176470588235" d="M 647.5 104 L 685.5 104 L 686.5 105 L 696.5 105 L 710.5 110 L 716 115.5 L 719 123.5 L 719 131.5 Q 716.1 143.1 707.5 149 L 693.5 156 L 663.5 162 L 652.5 162 L 651.5 163 L 591 163 L 591 106 L 614.5 106 L 615.5 105 L 646.5 105 L 647.5 104 Z M 611 110 L 610 111 L 598 111 L 596 113 L 596 160 L 642 160 L 643 159 L 658 159 L 668 157 L 676 157 L 680 155 L 689 154 L 691 152 L 695 152 L 703 147 L 705 147 L 707 144 Q 709 145 708 142 L 710 142 L 715 132 L 715 125 L 710 115 L 698 110 L 611 110 Z " /><path fill="rgb(219,229,243)" stroke="rgb(219,229,243)" stroke-width="1" opacity="0.32941176470588235" d="M 77 177 L 156.5 177 L 157.5 178 L 168.5 178 L 192.5 184 Q 205.1 188.4 212 198.5 Q 217.9 206.6 217 221.5 Q 214.2 235.7 203.5 242 Q 194.2 247.7 181.5 250 L 173.5 250 L 172.5 251 L 137.5 251 L 136.5 250 L 110.5 249 L 109.5 248 L 84.5 245 L 77 243 L 77 177 Z M 84 181 L 82 183 L 82 240 L 97 243 L 102 243 L 107 245 L 138 246 L 139 247 L 173 247 L 174 246 L 182 246 Q 183 244 188 245 L 198 240 L 200 240 L 200 238 L 203 238 Q 202 235 205 236 L 213 224 L 213 212 L 207 199 Q 204 200 205 198 L 200 193 Q 196 194 197 191 L 194 191 L 192 188 L 186 188 L 184 186 L 177 186 L 168 183 L 84 181 Z " /><path fill="rgb(219,229,243)" stroke="rgb(219,229,243)" stroke-width="1" opacity="0.32941176470588235" d="M 591 177 L 670.5 177 L 671.5 178 L 682.5 178 L 706.5 184 Q 716.4 187.6 723 194.5 L 730 206.5 L 731 221.5 Q 729.1 231.2 724 237 L 709.5 246 L 695.5 250 L 687.5 250 L 686.5 251 L 651.5 251 L 650.5 250 L 636.5 250 L 635.5 249 L 617.5 248 L 591 243 L 591 177 Z M 598 181 L 596 183 L 596 239 L 600 241 L 622 245 L 648 246 L 649 247 L 690 247 L 691 246 L 703 245 L 717 238 Q 724 234 726 225 Q 729 207 721 201 Q 722 198 720 199 L 718 196 L 706 188 Q 699 190 700 186 Q 690 187 685 183 L 668 183 L 667 182 L 598 181 Z " /><path fill="rgb(0,74,172)" stroke="rgb(0,74,172)" stroke-width="1" opacity="0.9803921568627451" d="M 161.5 40 L 190.5 40 L 217.5 45 Q 236.3 51.3 248 64.5 Q 256.5 73.5 260 87.5 L 261 92.5 L 261 112.5 Q 256.1 135.6 239.5 147 Q 228.5 156 213.5 161 L 184 168 L 185.5 165 L 204.5 162 L 206.5 160 L 210.5 160 L 214.5 157 L 218.5 157 Q 220.7 153.5 226 154 Q 224.8 151 228.5 152 L 240.5 142 L 244 141 Q 242.5 137.3 245.5 138 L 252 129.5 L 257 119.5 Q 255.8 112.8 259 110.5 L 259 95.5 Q 255.7 91.6 257 84 Q 254 85.3 255 81.5 L 252 74 L 249 72.5 L 245.5 66 Q 242.5 66.7 244 63 L 241.5 63 L 227.5 53 L 224.5 53 L 221.5 50 Q 216.5 51 215.5 48 Q 206.7 49.3 203.5 45 L 172.5 44 L 171.5 45 L 114.5 45 L 110.5 47 Q 104.3 45.3 102.5 48 L 45.5 48 L 43 49 L 43 53 L 44.5 53 Q 47 54.2 46 58 Q 48.7 56.9 48 59.5 L 51 64.5 L 51 68 Q 53.7 66.9 53 69.5 Q 55.3 70.8 54 75.5 L 56 77.5 L 56 86.5 L 59 90.5 L 59 101.5 L 61 104.5 L 61 113.5 L 62 114.5 L 63 207.5 L 62 208.5 L 62 242.5 L 61 243.5 L 61 251.5 L 59 253.5 L 59 264.5 L 56 268.5 L 56 276.5 L 54 279.5 L 53 287 Q 49.3 285.6 51 291.5 L 44.5 303 L 43 303 L 43 307 L 59.5 307 L 60.5 308 L 85.5 308 L 86.5 309 L 97.5 309 L 98.5 310 L 158.5 311 L 167.5 313 L 194.5 313 L 198.5 311 L 214.5 310 L 228.5 305 L 233 305 Q 231.8 302 235.5 303 L 255 292 L 258.5 287 Q 260.8 287.8 260 285.5 L 262 282 L 265 280.5 L 265 278.5 L 270 272.5 L 270 269.5 L 273 266.5 L 273 261.5 L 275 258.5 Q 274.3 251.8 277 248.5 L 277 234.5 L 275 228.5 L 275 222.5 L 273 220.5 L 273 215.5 Q 269 214.1 270 209 Q 267.3 210.1 268 207.5 Q 264 206.1 265 201 L 262 201 Q 263 198 260 199 L 260 196 L 257 196 Q 258.1 193.3 255.5 194 L 249 189.5 Q 249.8 186.9 246.5 188 Q 244.5 184.8 240 185 Q 241.3 181.3 235.5 183 L 226.5 178 L 217 177 L 216.5 175 L 201.5 175 Q 198.6 171.4 190.5 173 L 185 169.5 L 195.5 169 L 196.5 170 L 215.5 172 L 237.5 179 Q 255.7 186.3 267 200.5 Q 274.4 210.1 278 223.5 Q 276.8 228.2 279 229.5 L 279 251.5 Q 274 279.5 255.5 294 L 237.5 305 L 223.5 310 L 209.5 313 L 201.5 313 L 200.5 314 L 151.5 314 L 150.5 313 L 127.5 313 L 126.5 312 L 108.5 312 L 107.5 311 L 87.5 311 L 86.5 310 L 37 309 L 50 283.5 L 56 258.5 L 57 244.5 L 58 243.5 L 58 231.5 L 59 230.5 L 59 209.5 L 60 208.5 L 60 150.5 L 59 149.5 L 58 110.5 L 57 109.5 L 57 102.5 L 54 85.5 L 48 65.5 Q 43.5 54 36 45.5 L 93.5 44 L 94.5 43 L 130.5 42 L 131.5 41 L 160.5 41 L 161.5 40 Z " /><path fill="rgb(0,74,172)" stroke="rgb(0,74,172)" stroke-width="1" opacity="0.9803921568627451" d="M 676.5 40 L 704.5 40 L 731.5 45 Q 751 51.5 763 65.5 Q 769.5 73 773 83.5 L 775 91.5 L 776 105.5 L 775 106.5 L 774 117.5 L 768 131.5 L 752.5 148 Q 741.7 156.2 727.5 161 L 698 168 L 699.5 165 L 704.5 165 L 708.5 163 L 718.5 162 Q 719.5 159 724.5 160 L 728.5 157 L 732.5 157 L 742.5 152 Q 746 147 752 146 Q 750.9 143.3 753.5 144 L 757 139 L 762 135.5 L 772 115.5 L 773 99.5 L 772 98.5 L 772 89.5 L 770 87.5 L 767 76 Q 764.3 77.1 765 74.5 L 762 69 L 760 69 L 760 66 L 757 66 Q 758.5 62.2 755.5 63 Q 754.4 60.3 751 61 L 749.5 58 L 738.5 53 L 735.5 50 Q 729.8 51.3 728.5 48 L 721.5 48 L 716.5 45 L 632.5 45 L 628.5 47 Q 622.3 45.3 620.5 48 L 558.5 48 L 556 49 Q 554.9 51.7 557.5 51 L 562 58.5 L 562 61 L 564 61 L 564 66 Q 566.7 64.9 566 67.5 L 569 73.5 L 569 80.5 L 572 85.5 L 572 94.5 L 574 97.5 Q 572.5 103 575 104.5 L 575 116.5 L 577 120.5 L 577 234.5 Q 573.6 240.6 575 251.5 L 572 259.5 L 572 269.5 L 569 274.5 L 569 281.5 L 564 290.5 L 564 295 Q 561 293.8 562 297.5 L 561 300 Q 557.7 298.7 559 303.5 L 556 305 L 556.5 307 L 579.5 307 L 580.5 308 L 604.5 308 L 605.5 309 L 615.5 309 L 616.5 310 L 654.5 310 L 655.5 311 L 673.5 311 L 683.5 313 L 707.5 313 L 711.5 311 L 729.5 310 L 742.5 305 L 747 305 Q 745.8 302 749.5 303 L 756.5 300 L 759.5 297 L 762 297 Q 760.9 294.3 763.5 295 L 773 287.5 L 778 280 Q 780.7 281.1 780 278.5 L 783 271 Q 786 272.3 785 268.5 L 788 263.5 Q 787.3 256.8 790 253.5 L 791 238.5 L 790 237.5 L 790 226.5 L 788 219.5 L 778 201 Q 775.3 202.1 776 199.5 L 773 198 Q 774.1 195.3 771.5 196 L 770 193 L 762.5 188 L 760 188 Q 761.3 184.7 756.5 186 L 753.5 183 L 749.5 183 L 740.5 178 L 731 177 L 730.5 175 L 716.5 175 Q 713.3 171.2 704.5 173 L 699 169.5 L 709.5 169 L 710.5 170 L 729.5 172 L 749.5 178 Q 768.9 185.6 781 200.5 Q 787.7 208.3 791 219.5 L 793 228.5 L 794 242.5 L 793 243.5 L 792 257.5 L 788 269.5 Q 781.2 284.2 769.5 294 L 751.5 305 L 737.5 310 L 723.5 313 L 715.5 313 L 714.5 314 L 665.5 314 L 664.5 313 L 642.5 313 L 641.5 312 L 623.5 312 L 622.5 311 L 551 309 L 563 286.5 L 568 269.5 L 571 252.5 L 572 234.5 L 573 233.5 L 573 212.5 L 574 211.5 L 574 144.5 L 573 143.5 L 572 110.5 L 571 109.5 L 571 101.5 L 568 89.5 L 568 84.5 L 562 65.5 Q 557.5 54 550 45.5 L 607.5 44 L 608.5 43 L 644.5 42 L 645.5 41 L 675.5 41 L 676.5 40 Z " /><path fill="rgb(0,74,172)" stroke="rgb(0,74,172)" stroke-width="1" opacity="0.9803921568627451" d="M 940.5 40 L 975.5 41 L 1006.5 49 Q 1030.9 59.1 1048 76.5 Q 1069.4 98.1 1079 131.5 L 1084 156.5 L 1085 189.5 L 1084 190.5 L 1084 199.5 L 1083 200.5 L 1082 211.5 L 1073 240.5 Q 1061.2 267.2 1040.5 285 Q 1021.9 300.9 995.5 309 L 978.5 313 L 948.5 315 L 947.5 314 L 933.5 314 L 932.5 313 L 920.5 312 L 908.5 309 L 888.5 301 Q 866.4 289.6 851 271.5 Q 834.4 251.6 826 223.5 L 821 199.5 L 820 162.5 L 821 161.5 L 821 153.5 L 824 137.5 L 834 109.5 Q 844 89 859.5 74 Q 875.8 58.3 898.5 49 L 918.5 43 L 929.5 41 L 939.5 41 L 940.5 40 Z M 952 44 L 951 45 L 927 45 L 926 47 Q 922 49 915 48 L 913 50 L 906 50 L 905 52 L 895 56 L 892 56 L 892 58 L 887 58 L 886 61 Q 881 60 882 63 Q 878 62 877 66 Q 873 65 874 68 L 871 70 Q 872 73 868 71 L 868 73 L 862 76 L 855 85 L 851 91 L 848 92 Q 849 96 845 98 Q 846 101 843 100 L 835 116 L 835 120 L 832 123 L 832 127 L 830 129 Q 831 136 827 139 L 827 148 L 825 151 L 825 160 L 824 161 L 825 204 L 827 207 L 827 216 Q 831 218 830 227 Q 833 228 832 233 L 835 236 Q 833 242 837 241 L 840 248 Q 839 252 842 251 L 843 254 Q 842 257 845 256 L 847 260 L 848 260 L 848 264 L 851 266 Q 850 268 853 267 L 853 270 L 855 270 L 861 279 L 870 285 Q 872 284 871 287 L 880 293 Q 883 292 882 295 L 885 295 L 892 300 L 895 300 L 904 305 L 921 310 L 936 311 L 939 313 L 967 313 L 970 311 L 985 310 L 1002 305 L 1018 297 Q 1021 298 1020 295 Q 1025 296 1027 292 Q 1029 293 1028 290 L 1036 286 Q 1035 283 1038 284 L 1038 282 L 1043 280 L 1044 278 L 1048 275 L 1051 271 Q 1050 268 1053 269 L 1067 247 Q 1066 243 1069 244 L 1079 214 L 1080 202 L 1082 198 L 1082 161 L 1080 157 L 1079 144 L 1077 141 L 1077 137 L 1075 134 L 1074 127 L 1069 114 L 1056 93 Q 1057 90 1054 91 L 1053 89 Q 1054 86 1051 87 L 1051 84 L 1050 84 L 1046 79 L 1043 78 L 1043 76 L 1041 76 Q 1042 73 1040 74 L 1038 71 Q 1034 72 1033 68 Q 1030 69 1031 66 L 1027 65 L 1027 63 L 1023 63 L 1023 61 L 1020 61 L 1017 58 L 1014 58 L 1006 53 Q 1000 55 1001 52 Q 999 48 993 50 L 991 48 L 983 48 L 979 45 L 956 45 L 952 44 Z " /><path fill="rgb(0,74,172)" stroke="rgb(0,74,172)" stroke-width="1" opacity="0.9803921568627451" d="M 301.5 45 L 527.5 45 L 529 46.5 L 529 128.5 L 527.5 129 Q 517.7 119.3 503.5 114 L 485.5 109 L 471.5 108 L 470.5 107 L 459.5 107 L 458.5 106 L 341 106 L 341 149 L 393.5 149 L 394.5 148 L 412.5 148 L 413.5 147 L 433.5 146 L 450.5 143 L 468.5 138 L 485.5 128 L 486 224 L 463.5 213 L 434.5 207 L 417.5 206 L 416.5 205 L 401.5 205 L 400.5 204 L 341 204 L 341 248 L 463.5 248 L 464.5 247 L 475.5 247 L 481.5 245 L 486.5 245 L 501.5 241 Q 516.5 236 526.5 226 L 529 226 L 529 309 L 301.5 309 L 303 306.5 L 313 288.5 L 321 258.5 L 322 244.5 L 323 243.5 L 323 231.5 L 324 230.5 L 324 207.5 L 325 206.5 L 325 152.5 L 324 151.5 L 323 111.5 L 322 110.5 L 322 102.5 L 319 85.5 L 313 65.5 L 301.5 45 Z M 312 48 L 308 49 L 319 72 Q 318 79 322 82 L 322 90 L 325 98 L 325 107 L 327 111 L 327 245 L 325 249 L 324 263 L 322 265 L 322 274 L 319 278 L 319 284 Q 316 285 317 290 L 314 293 L 314 296 L 311 301 Q 312 303 309 302 L 309 305 L 306 307 L 525 307 L 527 303 L 527 232 L 522 235 Q 518 234 519 237 L 517 238 Q 513 237 514 240 L 511 240 L 508 243 L 504 243 L 499 246 Q 492 244 491 248 L 481 248 L 474 251 L 341 251 L 340 249 L 340 204 L 342 202 L 389 202 L 390 203 L 428 204 L 432 206 L 450 207 Q 452 210 459 209 L 484 219 L 484 134 L 481 136 Q 477 135 478 138 L 472 141 L 465 142 L 463 144 L 456 144 L 451 147 Q 443 145 442 149 L 425 149 L 415 152 L 343 152 L 340 149 L 340 118 L 339 117 L 340 105 L 475 105 L 482 108 L 491 108 Q 492 112 499 110 L 504 113 Q 510 112 509 115 L 518 118 L 525 123 L 527 118 L 527 69 L 526 68 L 526 50 L 525 48 L 312 48 Z " /><path fill="rgb(0,74,172)" stroke="rgb(0,74,172)" stroke-width="1" opacity="0.9803921568627451" d="M 938.5 102 L 971 102.5 L 938.5 103 L 938.5 102 Z " /><path fill="rgb(0,74,172)" stroke="rgb(0,74,172)" stroke-width="1" opacity="0.9803921568627451" d="M 111.5 103 L 182.5 103 Q 185.1 106.4 192.5 105 L 202 111.5 Q 201.3 113.8 203.5 113 L 207 118.5 L 207 137.5 Q 203.8 139.5 204 144 Q 201.3 142.9 202 145.5 L 200 149 Q 196.2 147.5 197 150.5 L 180.5 160 Q 174.5 159 172.5 162 L 163.5 162 L 158.5 165 L 138.5 165 L 132.5 167 L 77.5 167 L 75 164.5 L 75 105 Q 78.8 103.2 86.5 104 L 87.5 105 L 101 105.5 L 77 106 L 77 163 L 136.5 163 L 137.5 162 L 157.5 161 L 172.5 158 L 186.5 153 L 200 142.5 Q 205.3 136.3 205 124.5 L 202 115.5 L 196.5 110 L 182.5 105 L 172.5 105 L 171.5 104 L 133.5 104 L 132.5 105 L 103.5 105 L 103.5 104 Q 109.7 105.8 111.5 103 Z " /><path fill="rgb(0,74,172)" stroke="rgb(0,74,172)" stroke-width="1" opacity="0.9803921568627451" d="M 622.5 103 L 697.5 103 L 699.5 105 Q 706.3 104.1 709 106 Q 707.7 109.3 712.5 108 L 717 111 L 718 116 Q 721 114.8 720 118.5 Q 724.5 122 723 131.5 Q 719.1 134.5 720 141 Q 717 139.8 718 143.5 L 713.5 149 L 709.5 152 L 707 152 Q 708.1 154.7 705.5 154 L 701.5 157 L 698.5 157 L 694.5 160 L 689.5 160 L 687.5 162 L 676 162 Q 677.3 165 673.5 164 L 672.5 165 L 652.5 165 L 647.5 167 L 592.5 167 Q 586.7 162.3 589 149.5 L 590 148.5 L 590 130.5 L 589 129.5 L 589 113.5 L 590 112.5 L 590 105 L 599.5 104 L 600.5 105 L 615 105.5 L 591 106 L 591 163 L 651.5 163 L 652.5 162 L 671.5 161 L 693.5 156 L 707.5 149 L 714 142.5 Q 719.9 136.4 719 123.5 Q 717.3 114.3 710.5 110 L 696.5 105 L 686.5 105 L 685.5 104 L 647.5 104 L 646.5 105 L 616.5 105 L 616.5 104 Q 621.3 105.2 622.5 103 Z " /><path fill="rgb(0,74,172)" stroke="rgb(0,74,172)" stroke-width="1" opacity="0.9803921568627451" d="M 913.5 103 L 931 103.5 L 899.5 108 L 881.5 114 Q 863.4 121.9 851 135.5 Q 843 144.5 839 157.5 L 837 166.5 L 837 185.5 L 841 201.5 L 846 211.5 L 857.5 225 Q 875.3 240.7 902.5 247 L 917.5 250 L 936.5 251 L 937.5 252 L 967.5 252 L 968.5 251 L 978.5 251 L 979.5 250 L 992.5 249 L 1013.5 244 L 1035.5 234 L 1053 219.5 Q 1061.7 210.2 1066 196.5 L 1068 187.5 L 1068 167.5 Q 1063.7 141.3 1046.5 128 L 1023.5 114 L 1005.5 108 L 974 103.5 L 992.5 103 L 994.5 105 L 1004.5 105 Q 1007.1 108.9 1014.5 108 L 1016.5 110 L 1020.5 110 L 1024.5 113 Q 1029 112 1030 114.5 L 1030 116 L 1034.5 116 L 1035 118 L 1037.5 118 L 1040 119 L 1040 121 L 1043 121 Q 1041.9 123.7 1044.5 123 L 1051 127.5 Q 1050.3 129.8 1052.5 129 L 1054 132 Q 1056.7 130.9 1056 133.5 L 1064 143.5 L 1064 147 Q 1066.7 145.9 1066 148.5 L 1069 154.5 L 1069 161.5 L 1072 166.5 L 1072 188.5 L 1069 193.5 L 1069 200.5 L 1064 208.5 L 1064 212 Q 1061.3 210.9 1062 213.5 L 1057.5 220 Q 1055.3 219.3 1056 221.5 L 1054 225 L 1046 230 Q 1047.1 232.7 1044.5 232 Q 1043.1 236 1038 235 L 1036.5 238 L 1030.5 240 L 1027.5 243 L 1023.5 243 Q 1022.1 246.6 1016.5 246 L 1014.5 248 L 1007 248 Q 1008.3 251 1004.5 250 Q 1002.7 252.7 996.5 251 L 994.5 253 L 984.5 253 L 972.5 256 L 935.5 256 L 922.5 253 L 911.5 253 L 909.5 251 Q 902 252 899 250 L 898.5 248 L 891.5 248 L 889.5 246 L 885.5 246 L 877 241.5 L 877 240 L 872.5 240 L 872 238 L 869.5 238 L 867 237 L 867 235 L 864 235 Q 865.3 232 861.5 233 L 860 230 L 856 229 L 856 227 L 854 227 Q 855.1 224.3 852.5 225 L 845 214 Q 842 215.3 843 211.5 L 835 192.5 L 834 167.5 L 838 152.5 L 843 142 Q 846 143.3 845 139.5 L 848 134 L 851 132.5 Q 850.3 130.3 852.5 131 L 856 126 L 868.5 118 L 877 115 Q 875.6 111.3 881.5 113 L 885.5 110 Q 890.5 111 891.5 108 L 896.5 108 L 900.5 105 Q 910 107 913.5 103 Z " /><path fill="rgb(0,74,172)" stroke="rgb(0,74,172)" stroke-width="1" opacity="0.9803921568627451" d="M 77.5 175 L 156.5 175 L 157.5 176 L 166.5 176 L 173.5 178 L 181.5 178 Q 184.7 181.3 191.5 181 L 210 191 L 211.5 194 Q 213.8 193.3 213 195.5 Q 215.7 196.6 215 200 Q 217.7 198.9 217 201.5 L 220 209.5 L 220 224.5 L 218 226.5 L 218 231.5 Q 214.2 232.8 215 237 L 212 238.5 L 210 241.5 L 200.5 248 L 196.5 248 L 193.5 251 Q 187.5 250 185.5 253 L 141.5 254 L 140.5 253 L 112.5 253 L 109.5 251 L 97.5 251 L 92.5 248 L 80.5 248 L 75 245 L 75 176.5 L 76.5 176 L 77.5 175 Z M 77 177 L 77 243 L 85 245 L 110 248 L 111 249 L 137 250 L 138 251 L 173 251 L 174 250 L 182 250 Q 194 248 204 242 Q 214 236 217 222 Q 218 207 212 199 Q 205 188 193 184 L 169 178 L 158 178 L 157 177 L 77 177 Z " /><path fill="rgb(0,74,172)" stroke="rgb(0,74,172)" stroke-width="1" opacity="0.9803921568627451" d="M 591.5 175 L 673.5 175 L 688.5 178 L 696.5 178 L 718 186 Q 716.9 188.7 719.5 188 L 728 195.5 Q 726.9 198.8 729.5 198 L 733 204.5 L 734 221.5 L 733 222.5 L 733 230 Q 729.7 228.7 731 233.5 L 728 235 L 728 238 L 726 238 Q 727.1 240.7 724.5 240 L 723 243 L 720 243 Q 721.1 245.7 718.5 245 Q 716.2 249.1 710 248 Q 711.1 250.7 708.5 250 Q 707.3 252.3 702.5 251 L 700.5 253 L 654.5 254 L 653.5 253 L 626.5 253 L 623.5 251 L 611.5 251 L 606.5 248 L 594.5 248 L 590 244.5 L 589 183.5 Q 591.5 182 590 176.5 L 591.5 175 Z M 591 177 L 591 243 L 618 248 L 636 249 L 637 250 L 651 250 L 652 251 L 687 251 L 688 250 L 696 250 L 710 246 L 724 237 Q 729 231 731 222 L 730 207 L 723 195 Q 716 188 707 184 L 683 178 L 672 178 L 671 177 L 591 177 Z " /><path fill="rgb(0,74,173)" stroke="rgb(0,74,173)" stroke-width="1" opacity="0.996078431372549" d="M 172.5 44 L 203.5 45 Q 206.7 49.3 215.5 48 Q 216.5 51 221.5 50 L 224.5 53 L 227.5 53 L 241.5 63 L 244 63 Q 242.5 66.7 245.5 66 L 250.5 74 Q 253.1 73.2 252 76.5 Q 255.5 78.7 255 84 L 257 84.5 L 257 91.5 L 259 95.5 L 259 110.5 Q 255.8 112.8 257 119.5 L 252 129.5 L 245.5 138 L 244 138 Q 245.5 141.8 242.5 141 L 228.5 152 L 226 152 Q 227.3 155 223.5 154 L 218.5 157 L 214.5 157 L 210.5 160 L 206.5 160 L 204.5 162 L 194.5 163 Q 191.8 165.8 185.5 165 L 184 166.5 L 183 168.5 L 190.5 173 Q 198.6 171.4 201.5 175 L 217 175 Q 215.8 178 219.5 177 Q 221 179.5 226.5 178 L 235.5 183 L 240 183 Q 238.9 185.7 241.5 185 L 249 188 L 250.5 191 L 257 194 Q 255.9 197.3 260 196 L 260 199 Q 263 198 262 201 L 265 201 L 265 204.5 L 268 209 Q 271.3 207.7 270 212.5 L 273 215.5 Q 271.8 221.3 275 222.5 L 275 228.5 L 277 234.5 L 277 248.5 Q 274.3 251.8 275 258.5 L 273 261.5 L 273 266.5 L 270 269.5 L 270 272.5 L 263.5 282 Q 261.3 281.3 262 283.5 L 260 287 L 255 290.5 Q 255.8 292.8 253.5 292 L 242.5 300 L 233 303 Q 234.3 306.7 228.5 305 L 214.5 310 L 198.5 311 L 194.5 313 L 167.5 313 L 158.5 311 L 98.5 310 L 97.5 309 L 86.5 309 L 85.5 308 L 60.5 308 L 59.5 307 L 43 307 L 43 303 L 44.5 303 L 51 291.5 L 51 287 Q 54 288.3 53 284.5 L 56 276.5 L 56 268.5 L 59 264.5 L 59 253.5 L 61 251.5 L 61 243.5 L 62 242.5 L 63 155.5 L 62 154.5 L 62 114.5 L 61 113.5 L 61 104.5 L 59 101.5 L 59 90.5 L 56 86.5 L 56 77.5 L 54 75.5 Q 54.6 70.1 53 68 Q 49.7 69.3 51 64.5 L 48 58 Q 44.7 59.3 46 54.5 L 43 53 L 43 49 L 44.5 49 L 45.5 48 L 102.5 48 Q 104.3 45.3 110.5 47 L 114.5 45 L 171.5 45 L 172.5 44 Z M 112 103 L 103 105 L 88 105 L 87 104 Q 79 103 75 105 L 75 165 L 78 167 L 133 167 L 139 165 L 159 165 L 164 162 L 173 162 Q 175 159 181 160 L 197 151 Q 196 148 200 149 L 202 146 Q 201 143 204 144 Q 204 140 207 138 L 207 119 L 204 113 Q 201 114 202 112 L 193 105 Q 185 106 183 103 L 112 103 Z M 78 175 L 77 176 L 75 177 L 75 245 L 81 248 L 93 248 L 98 251 L 110 251 L 113 253 L 141 253 L 142 254 L 186 253 Q 188 250 194 251 L 197 248 L 201 248 L 210 242 L 212 239 L 215 237 Q 214 233 218 232 L 218 227 L 220 225 L 220 210 L 217 202 Q 218 199 215 200 Q 216 197 213 196 Q 214 193 212 194 L 210 191 L 192 181 Q 185 181 182 178 L 174 178 L 167 176 L 158 176 L 157 175 L 78 175 Z " /><path fill="rgb(0,74,173)" stroke="rgb(0,74,173)" stroke-width="1" opacity="0.996078431372549" d="M 951.5 44 L 955.5 45 L 978.5 45 L 982.5 48 L 990.5 48 L 992.5 50 Q 999.3 48.3 1001 51.5 Q 1000.1 54.9 1005.5 53 L 1013.5 58 L 1016.5 58 L 1019.5 61 L 1023 61 L 1023 63 L 1027 63 L 1027 64.5 L 1031 66 Q 1029.9 68.7 1032.5 68 Q 1033.8 71.7 1038 71 L 1039.5 74 Q 1042.1 73.3 1041 76 L 1043 76 L 1043 77.5 L 1046 79 L 1049.5 84 L 1051 84 L 1051 87 Q 1053.7 85.9 1053 88.5 L 1054 91 Q 1056.7 89.9 1056 92.5 L 1069 113.5 L 1074 126.5 L 1075 133.5 L 1077 136.5 L 1077 140.5 L 1079 143.5 L 1080 156.5 L 1082 160.5 L 1082 197.5 L 1080 201.5 L 1079 213.5 L 1069 244 Q 1066 242.8 1067 246.5 L 1052.5 269 Q 1050.3 268.3 1051 270.5 L 1047.5 275 L 1044 277.5 L 1042.5 280 L 1038 282 L 1038 284 Q 1035.3 282.9 1036 285.5 L 1028 290 Q 1029.1 292.7 1026.5 292 Q 1024.6 295.6 1020 295 Q 1021.3 298 1017.5 297 L 1001.5 305 L 984.5 310 L 969.5 311 L 966.5 313 L 938.5 313 L 935.5 311 L 920.5 310 L 903.5 305 L 894.5 300 L 891.5 300 L 884.5 295 L 882 295 Q 883.3 292 879.5 293 L 871 287 Q 872.1 284.3 869.5 285 L 861 279 L 855 270 L 853 270 L 853 267 Q 850.3 268.1 851 265.5 L 848 264 L 848 260 L 846.5 260 L 845 256 Q 842 257.3 843 253.5 L 842 251 Q 838.7 252.3 840 247.5 L 837 241 Q 833 242.4 835 235.5 L 832 232.5 Q 833 227.5 830 226.5 Q 831.1 218.4 827 215.5 L 827 206.5 L 825 203.5 L 824 160.5 L 825 159.5 L 825 150.5 L 827 147.5 L 827 138.5 Q 830.9 135.9 830 128.5 L 832 126.5 L 832 122.5 L 835 119.5 L 835 115.5 L 843 100 Q 846 101.3 845 97.5 Q 848.8 96.3 848 92 L 851 90.5 L 855 84.5 L 862 76 L 868 73 L 868 71 Q 871.8 72.5 871 69.5 L 874 68 Q 872.8 65 876.5 66 Q 877.7 62.2 882 63 Q 880.7 59.7 885.5 61 L 887 58 L 891.5 58 L 892 56 L 894.5 56 L 905 51.5 L 905.5 50 L 912.5 50 L 914.5 48 Q 922.2 48.8 926 47 L 926.5 45 L 950.5 45 L 951.5 44 Z M 939 102 L 938 103 L 914 103 Q 910 107 901 105 L 897 108 L 892 108 Q 891 111 886 110 L 882 113 Q 876 111 877 115 L 869 118 L 856 126 L 853 131 Q 850 130 851 133 L 848 134 L 845 140 Q 846 143 843 142 L 838 153 L 834 168 L 835 193 L 843 212 Q 842 215 845 214 L 853 225 Q 855 224 854 227 L 856 227 L 856 229 L 860 230 L 862 233 Q 865 232 864 235 L 867 235 L 867 237 L 870 238 L 872 238 L 873 240 L 877 240 L 877 242 L 886 246 L 890 246 L 892 248 L 899 248 L 899 250 Q 902 252 910 251 L 912 253 L 923 253 L 936 256 L 973 256 L 985 253 L 995 253 L 997 251 Q 1003 253 1005 250 Q 1008 251 1007 248 L 1015 248 L 1017 246 Q 1022 247 1024 243 L 1028 243 L 1031 240 L 1037 238 L 1038 235 Q 1043 236 1045 232 Q 1047 233 1046 230 L 1054 225 L 1056 222 Q 1055 219 1058 220 L 1062 214 Q 1061 211 1064 212 L 1064 209 L 1069 201 L 1069 194 L 1072 189 L 1072 167 L 1069 162 L 1069 155 L 1066 149 Q 1067 146 1064 147 L 1064 144 L 1056 134 Q 1057 131 1054 132 L 1053 129 Q 1050 130 1051 128 L 1045 123 Q 1042 124 1043 121 L 1040 121 L 1040 119 L 1038 118 L 1035 118 L 1035 116 L 1030 116 L 1030 115 Q 1029 112 1025 113 L 1021 110 L 1017 110 L 1015 108 Q 1007 109 1005 105 L 995 105 L 993 103 L 939 102 Z " /><path fill="rgb(0,74,173)" stroke="rgb(0,74,173)" stroke-width="1" opacity="0.996078431372549" d="M 632.5 45 L 716.5 45 L 721.5 48 L 728.5 48 Q 729.8 51.3 735.5 50 L 738.5 53 L 751 59.5 Q 750.2 62.1 753.5 61 L 757 63 L 757 66 L 760 66 L 760 69 Q 762.7 67.9 762 70.5 L 765 76 Q 768 74.8 767 78.5 Q 770 81.5 770 87.5 L 772 89.5 L 773 106.5 L 770 121.5 L 765 131.5 L 758.5 139 Q 756.3 138.3 757 140.5 L 752 144 Q 753.1 146.7 750.5 146 L 732.5 157 L 728.5 157 L 718.5 162 L 708.5 163 Q 705.8 165.8 699.5 165 L 698 166.5 L 697 168.5 L 704.5 173 Q 713.3 171.2 716.5 175 L 731 175 Q 729.8 178 733.5 177 Q 735 179.5 740.5 178 L 749.5 183 L 753.5 183 L 756.5 186 L 760 186 Q 758.8 189 762.5 188 L 770 193 L 771.5 196 L 774.5 198 L 776 201 Q 778.7 199.9 778 202.5 L 788 219.5 L 790 226.5 L 791 243.5 L 790 244.5 L 790 253.5 Q 787.3 256.8 788 263.5 Q 784.5 265.7 785 271 Q 782 269.8 783 273.5 L 780 280 Q 777.3 278.9 778 281.5 L 771.5 289 L 762 295 Q 763.3 298 759.5 297 L 752.5 302 L 747 303 Q 748.4 306.7 742.5 305 L 729.5 310 L 711.5 311 L 707.5 313 L 683.5 313 L 673.5 311 L 655.5 311 L 654.5 310 L 616.5 310 L 615.5 309 L 605.5 309 L 604.5 308 L 556 307 Q 554.9 304.3 557.5 305 Q 560 303.8 559 300 Q 561.7 301.1 561 298.5 L 562 295 Q 565.7 296.4 564 290.5 L 569 281.5 L 569 274.5 L 572 269.5 L 572 259.5 L 574 256.5 L 575 240.5 L 577 234.5 L 577 120.5 L 575 116.5 L 575 104.5 Q 572.5 103 574 97.5 L 572 94.5 L 572 85.5 L 569 80.5 L 569 73.5 L 567 71.5 L 566 66 L 564 66 L 564 61.5 L 562 61 L 562 58.5 L 557.5 51 Q 554.9 51.7 556 49 L 558.5 48 L 620.5 48 Q 622.3 45.3 628.5 47 L 632.5 45 Z M 623 103 L 616 105 L 601 105 L 600 104 L 590 105 L 590 113 L 589 114 L 589 130 L 590 131 L 590 149 L 589 150 Q 587 162 593 167 L 648 167 L 653 165 L 673 165 L 674 164 Q 677 165 676 162 L 688 162 L 690 160 L 695 160 L 699 157 L 702 157 L 706 154 Q 708 155 707 152 L 710 152 L 714 149 L 718 144 Q 717 140 720 141 Q 719 134 723 132 Q 725 122 720 119 Q 721 115 718 116 L 717 111 L 713 108 Q 708 109 709 106 Q 706 104 700 105 L 698 103 L 623 103 Z M 592 175 L 590 177 Q 592 182 589 184 L 590 245 L 595 248 L 607 248 L 612 251 L 624 251 L 627 253 L 654 253 L 655 254 L 701 253 L 703 251 Q 707 252 709 250 Q 711 251 710 248 Q 716 249 719 245 Q 721 246 720 243 L 723 243 L 725 240 Q 727 241 726 238 L 728 238 L 728 235 L 731 234 Q 730 229 733 230 L 733 223 L 734 222 L 733 205 L 730 198 Q 727 199 728 196 L 720 188 Q 717 189 718 186 L 697 178 L 689 178 L 674 175 L 592 175 Z " /><path fill="rgb(0,74,173)" stroke="rgb(0,74,173)" stroke-width="1" opacity="0.996078431372549" d="M 311.5 48 L 524.5 48 L 526 49.5 L 526 67.5 L 527 68.5 L 527 117.5 L 524.5 123 L 517.5 118 L 509 114.5 Q 509.6 111.8 503.5 113 L 498.5 110 Q 492 111.5 490.5 108 L 481.5 108 L 474.5 105 L 340 105 L 339 116.5 L 340 117.5 L 340 148.5 L 342.5 152 L 414.5 152 L 424.5 149 L 441.5 149 Q 443.3 145.3 450.5 147 L 455.5 144 L 462.5 144 L 464.5 142 L 471.5 141 L 478 137.5 Q 477.2 134.9 480.5 136 L 483.5 134 L 484 219 L 458.5 209 Q 452.2 209.8 449.5 207 L 431.5 206 L 427.5 204 L 389.5 203 L 388.5 202 L 341.5 202 L 340 203.5 L 340 248.5 L 341 251 L 473.5 251 L 480.5 248 L 490.5 248 Q 492 244.5 498.5 246 L 503.5 243 L 507.5 243 L 510.5 240 L 514 240 Q 512.8 237 516.5 238 L 519 237 Q 517.8 234 521.5 235 L 527 232 L 527 302.5 L 524.5 307 L 306 306.5 L 309 304.5 L 309 302 Q 311.7 303.1 311 300.5 L 314 295.5 L 314 292.5 L 317 289.5 Q 316 284.5 319 283.5 L 319 277.5 L 322 273.5 L 322 264.5 L 324 262.5 L 325 248.5 L 327 244.5 L 327 110.5 L 325 106.5 L 325 97.5 L 322 89.5 L 322 81.5 Q 318.1 78.9 319 71.5 L 308 49 L 311.5 48 Z " /><path fill="rgb(0,0,0)" stroke="rgb(0,0,0)" stroke-width="1" opacity="0" d="M 0 0 L 1110.5 0 L 1111 0.5 L 1111 338 L 0.5 338 L 0 337.5 L 0 0 Z M 165 37 L 164 38 L 145 38 L 139 40 L 91 40 L 90 41 L 80 41 L 79 42 L 42 42 L 34 44 L 33 47 Q 32 51 35 50 L 36 53 Q 35 56 38 55 L 38 58 L 42 64 Q 41 66 44 65 Q 43 69 46 71 L 46 76 L 49 80 L 49 87 L 51 89 L 52 101 L 54 103 L 54 124 L 55 125 L 56 141 L 57 142 L 57 219 L 54 234 L 54 254 Q 50 258 51 267 L 49 269 L 49 277 L 47 277 L 44 291 L 38 299 Q 39 302 36 301 Q 37 305 33 307 L 34 313 L 41 314 L 58 314 L 69 316 L 117 316 L 122 318 L 143 318 L 144 319 L 204 319 Q 205 316 212 318 L 214 316 L 223 316 L 224 315 Q 226 316 225 313 L 232 313 Q 232 310 237 311 L 253 302 L 259 298 L 269 287 Q 271 288 270 284 L 272 284 L 275 277 L 278 274 Q 277 269 280 269 L 280 262 L 283 258 L 283 224 L 280 220 L 280 214 L 277 209 Q 278 206 275 207 L 275 204 L 273 204 L 269 196 Q 266 197 267 194 L 265 194 L 264 191 L 261 189 L 259 186 L 257 186 L 246 178 L 243 178 L 234 173 L 231 173 L 225 170 L 221 170 L 218 168 Q 213 169 214 167 L 230 160 L 245 149 L 248 147 L 249 144 L 252 143 Q 251 140 254 141 L 254 138 L 256 138 L 262 128 L 262 124 L 265 119 L 265 105 L 266 104 L 265 103 L 265 88 L 262 83 Q 264 76 260 77 Q 259 70 254 67 Q 255 63 252 64 L 251 61 Q 248 62 249 59 L 246 58 Q 247 54 243 56 L 243 54 L 241 53 Q 238 54 239 51 Q 235 52 234 48 L 231 48 L 228 45 Q 223 46 223 43 L 217 43 L 213 40 L 203 40 L 199 38 L 190 38 L 189 37 L 165 37 Z M 685 37 L 684 38 L 662 38 L 657 40 L 609 40 L 598 42 L 589 42 L 588 43 L 562 43 L 561 42 L 550 43 L 547 47 L 547 50 L 557 66 L 564 86 L 564 93 L 567 105 L 567 115 L 569 120 L 569 135 L 570 136 L 570 224 L 569 225 L 569 239 L 567 243 L 567 253 L 561 281 Q 556 297 546 309 L 547 311 L 550 313 L 554 314 L 557 313 L 569 313 L 580 315 L 590 315 L 591 316 L 638 316 L 644 318 L 663 318 L 664 319 L 717 319 Q 718 316 725 318 L 728 316 L 737 316 L 741 313 L 746 313 Q 746 310 751 311 L 755 308 Q 760 310 759 306 L 765 303 Q 768 304 767 302 L 774 297 Q 776 298 775 295 L 777 295 L 777 294 L 780 292 L 783 288 Q 782 285 785 286 L 786 284 Q 785 281 788 282 L 788 279 L 791 276 L 793 272 L 793 268 L 796 264 Q 795 255 798 252 L 798 231 Q 794 227 796 219 L 793 216 L 793 212 L 788 205 L 788 203 L 780 194 Q 781 191 779 192 L 777 189 L 773 186 Q 769 187 770 184 L 749 173 L 727 168 L 737 162 Q 742 164 741 160 L 745 159 Q 747 160 746 157 Q 750 158 752 154 Q 755 155 754 152 L 757 152 L 759 149 L 764 145 L 767 141 Q 766 138 769 139 L 775 130 L 775 127 L 778 123 L 778 117 L 780 114 L 780 92 L 778 90 L 778 84 Q 774 82 775 77 L 769 66 Q 766 67 767 64 L 765 64 L 765 61 L 762 61 L 761 58 Q 758 59 759 56 L 757 56 L 757 55 L 752 51 Q 748 52 749 49 Q 744 49 741 45 L 738 45 L 736 43 L 730 43 L 726 40 L 715 40 L 711 38 L 702 38 L 701 37 L 685 37 Z M 946 37 L 945 38 L 936 38 L 932 40 L 919 40 L 915 43 L 907 43 L 906 45 L 901 46 Q 897 45 898 48 L 894 48 L 881 55 L 881 56 L 877 56 L 877 58 L 872 61 Q 868 60 869 63 L 862 68 Q 863 70 859 69 L 858 72 Q 855 71 856 74 L 854 74 L 854 76 L 851 77 L 845 86 Q 846 88 844 87 L 832 106 Q 833 109 830 108 L 822 130 L 816 161 L 816 192 L 817 193 L 817 203 L 819 206 L 819 214 L 822 223 L 822 227 L 832 252 Q 840 267 852 279 Q 854 278 853 281 L 856 282 L 860 287 Q 862 286 861 289 L 877 300 Q 881 298 880 302 L 899 311 Q 904 310 905 313 L 910 313 L 914 316 L 922 316 L 924 318 Q 929 317 931 319 L 975 319 Q 976 317 982 318 L 985 316 L 993 316 L 996 313 L 1002 313 L 1008 310 Q 1010 311 1009 308 L 1015 308 L 1022 303 L 1025 303 L 1027 300 Q 1031 301 1030 298 L 1033 298 L 1038 294 L 1038 292 L 1041 292 Q 1040 289 1043 290 L 1045 287 Q 1047 288 1046 285 L 1048 285 L 1056 277 Q 1055 272 1059 274 L 1064 267 Q 1063 263 1066 264 L 1069 260 L 1069 256 L 1072 255 Q 1071 250 1074 251 L 1075 248 Q 1074 244 1077 245 L 1077 241 L 1082 231 L 1082 225 L 1085 221 L 1085 214 L 1088 208 Q 1086 195 1090 189 L 1090 170 L 1088 165 L 1088 151 L 1087 146 L 1085 144 L 1085 137 L 1082 133 L 1082 127 Q 1079 125 1080 120 L 1077 117 L 1077 114 L 1069 100 Q 1070 96 1067 97 L 1067 95 L 1061 87 Q 1062 84 1059 85 L 1058 82 L 1056 82 L 1056 79 Q 1053 80 1054 77 L 1051 77 L 1051 74 L 1049 74 L 1048 71 Q 1045 72 1046 69 L 1043 69 L 1043 66 Q 1039 67 1040 64 L 1036 61 Q 1032 62 1033 59 L 1031 58 Q 1027 59 1028 56 L 1025 56 L 1025 54 Q 1021 54 1019 51 L 1016 51 L 1012 48 Q 1006 50 1007 46 L 1001 45 L 999 43 L 991 43 L 987 40 L 974 40 L 971 38 L 963 38 L 962 37 L 946 37 Z M 307 42 L 306 43 L 299 43 L 298 48 L 299 52 L 304 57 L 304 60 L 309 67 Q 308 73 312 75 L 312 79 L 314 82 L 315 92 L 317 95 L 317 105 L 320 115 L 320 169 L 321 170 L 320 241 L 317 251 L 317 261 L 315 264 L 314 274 Q 311 275 312 282 L 309 286 Q 311 291 307 290 Q 308 295 304 297 L 304 300 L 301 302 Q 302 304 299 303 L 299 307 L 297 307 Q 296 310 299 312 L 300 313 L 532 313 L 533 311 L 533 223 L 531 222 Q 526 221 525 223 Q 522 222 523 225 L 505 236 L 492 240 L 487 240 L 476 243 L 469 243 L 468 244 L 451 244 L 450 245 L 348 244 L 346 243 L 346 209 L 405 209 L 419 212 L 436 212 L 438 214 L 451 214 Q 453 218 461 217 L 470 222 L 474 222 L 477 225 Q 480 224 479 227 Q 483 226 485 230 L 489 229 L 491 227 L 491 126 L 488 124 Q 483 123 484 126 Q 480 125 479 129 Q 475 128 476 131 Q 471 130 470 134 L 466 134 L 464 136 Q 456 135 453 139 L 447 139 L 440 142 L 431 142 L 423 144 L 397 144 L 396 145 L 350 145 L 346 143 L 346 113 L 348 111 L 363 111 L 364 112 L 436 112 L 437 111 L 481 113 L 495 118 L 501 118 L 509 123 Q 513 121 512 125 L 518 128 Q 521 127 520 130 L 527 134 L 532 133 L 533 132 L 533 46 L 531 43 L 309 43 L 307 42 Z " /><path fill="rgb(0,0,0)" stroke="rgb(0,0,0)" stroke-width="1" opacity="0" d="M 928.5 108 L 977.5 108 L 981.5 110 L 996.5 110 L 1001.5 113 L 1007.5 113 Q 1008.8 116.3 1014.5 115 L 1018.5 118 L 1023 118 Q 1021.8 121 1025.5 120 Q 1027.6 123.9 1033 123 L 1034.5 126 L 1041 129.5 L 1041 131 L 1044 131 Q 1042.9 133.7 1045.5 133 L 1047 136 L 1049 136 L 1049 138 Q 1051.7 136.9 1051 139.5 L 1056 145.5 L 1061 155.5 L 1064 168.5 L 1064 186.5 L 1061 199.5 L 1058 207 Q 1055 205.8 1056 209.5 L 1053 215 L 1051 215 L 1051 217 Q 1048.3 215.9 1049 218.5 Q 1040.9 228.7 1028 233 Q 1029.3 236 1025.5 235 L 1015.5 240 L 1011.5 240 L 998.5 245 L 992.5 245 L 978.5 248 L 948.5 249 L 947.5 248 L 927.5 248 L 913.5 245 L 907.5 245 L 904.5 243 L 897.5 242 L 883.5 237 L 863 225 Q 864.1 222.3 861.5 223 L 855 215 L 853 215 L 853 212 Q 850.3 213.1 851 210.5 Q 847.3 207.4 847 202 Q 843 203.4 845 196.5 L 843 194.5 Q 844.1 185.9 841 181.5 L 841 170.5 L 843 166.5 L 843 160.5 Q 846 159.5 845 154.5 L 856 138.5 L 856 136 L 861 134 L 862.5 131 L 866.5 128 L 869 128 Q 867.9 125.3 870.5 126 L 884.5 118 L 888.5 118 L 891.5 115 Q 897.3 116.3 898.5 113 L 904.5 113 L 908.5 110 L 924.5 110 L 928.5 108 Z " /><path fill="rgb(0,0,0)" stroke="rgb(0,0,0)" stroke-width="1" opacity="0" d="M 84.5 110 L 96.5 111 L 97.5 110 L 183.5 110 Q 185.4 113.6 191.5 113 L 198 118.5 L 198 120 L 200 120.5 L 200 137 L 197 138.5 L 195 144 L 187 147 Q 188.1 149.7 185.5 149 L 173.5 154 L 152.5 158 L 127.5 159 L 126.5 160 L 82 160 L 82 111.5 L 83.5 111 L 84.5 110 Z " /><path fill="rgb(0,0,0)" stroke="rgb(0,0,0)" stroke-width="1" opacity="0" d="M 610.5 110 L 697.5 110 L 710 115 L 715 124.5 L 715 131.5 L 710 142 L 708 142 Q 709.1 144.7 706.5 144 L 705 147 L 702.5 147 L 694.5 152 L 690.5 152 L 688.5 154 L 679.5 155 L 675.5 157 L 667.5 157 L 657.5 159 L 642.5 159 L 641.5 160 L 596 160 L 596 112.5 L 597.5 111 L 609.5 111 L 610.5 110 Z " /><path fill="rgb(0,0,0)" stroke="rgb(0,0,0)" stroke-width="1" opacity="0" d="M 83.5 181 L 167.5 183 L 176.5 186 L 183.5 186 L 185.5 188 L 192 188 L 193.5 191 L 197 191 Q 195.8 194 199.5 193 L 205 197.5 Q 204.3 199.8 206.5 199 L 213 211.5 L 213 223.5 L 204.5 236 Q 201.9 235.3 203 238 L 200 238 L 200 240 L 197.5 240 L 187.5 245 Q 182.7 243.8 181.5 246 L 173.5 246 L 172.5 247 L 138.5 247 L 137.5 246 L 106.5 245 L 101.5 243 L 96.5 243 L 82 240 L 82 182.5 L 83.5 181 Z " /><path fill="rgb(0,0,0)" stroke="rgb(0,0,0)" stroke-width="1" opacity="0" d="M 597.5 181 L 666.5 182 L 667.5 183 L 684.5 183 Q 690.3 187.1 700 186 Q 698.6 190 705.5 188 L 718 196 L 719.5 199 Q 721.8 198.3 721 200.5 Q 728.7 207.3 726 224.5 Q 723.5 233.5 716.5 238 L 702.5 245 L 690.5 246 L 689.5 247 L 648.5 247 L 647.5 246 L 621.5 245 L 599.5 241 L 596 238.5 L 596 182.5 L 597.5 181 Z " /></svg>